<?xml version="1.0" standalone="no"?>
<!DOCTYPE svg PUBLIC "-//W3C//DTD SVG 20010904//EN"
 "http://www.w3.org/TR/2001/REC-SVG-20010904/DTD/svg10.dtd">
<svg version="1.0" xmlns="http://www.w3.org/2000/svg"
 width="1024.000000pt" height="1024.000000pt" viewBox="0 0 1024.000000 1024.000000"
 preserveAspectRatio="xMidYMid meet">

<g transform="translate(0.000000,1024.000000) scale(0.100000,-0.100000)"
fill="#000000" stroke="none">
<path d="M4826 9619 c-874 -56 -1714 -366 -2411 -889 -942 -709 -1563 -1725
-1755 -2875 -48 -287 -55 -383 -55 -755 1 -373 12 -500 70 -801 172 -884 595
-1677 1245 -2330 405 -407 822 -700 1326 -933 469 -217 958 -346 1504 -397
156 -14 597 -14 750 0 620 59 1161 218 1704 499 390 202 728 449 1063 776 753
734 1213 1644 1343 2659 74 579 33 1136 -127 1732 -152 566 -451 1155 -816
1610 -409 509 -911 922 -1471 1210 -730 377 -1546 546 -2370 494z m761 -133
c607 -64 1194 -254 1722 -558 1118 -644 1903 -1747 2136 -3003 43 -233 79
-572 58 -551 -4 4 -6 27 -4 52 3 51 -13 81 -35 63 -8 -6 -14 -28 -15 -48 -1
-20 -9 34 -19 119 -91 793 -366 1492 -835 2126 -237 319 -554 635 -895 890
-581 435 -1289 721 -2013 814 -435 56 -938 42 -1367 -36 -1134 -208 -2162
-889 -2804 -1859 -131 -197 -176 -275 -278 -480 -275 -550 -424 -1140 -448
-1775 -7 -181 -7 -182 -8 -56 -2 112 -4 127 -15 111 -40 -53 -46 34 -22 273
75 724 325 1405 736 2013 290 427 698 839 1134 1146 629 442 1383 709 2185
773 156 12 613 4 787 -14z m-442 -192 c21 -71 47 -97 121 -119 l59 -18 -59
-22 c-76 -28 -101 -54 -123 -121 -9 -30 -20 -54 -23 -54 -3 0 -14 25 -24 56
-23 72 -46 95 -118 118 -32 10 -58 20 -58 22 0 2 25 11 57 20 70 20 96 46 119
118 10 31 21 56 25 56 4 0 15 -25 24 -56z m-411 -130 c20 -20 20 -33 -1 -56
-29 -32 -73 -16 -73 27 0 42 44 59 74 29z m834 4 c32 -32 1 -85 -42 -74 -31 8
-40 33 -21 62 17 26 44 31 63 12z m-1363 -88 c37 -41 -14 -107 -64 -81 -47 26
-30 101 24 101 12 0 30 -9 40 -20z m1909 4 c24 -23 20 -61 -9 -80 -31 -20 -63
-10 -76 23 -20 53 45 97 85 57z m-1230 -289 c5 -15 -34 -41 -83 -55 -22 -5
-13 -12 68 -54 51 -26 90 -50 87 -53 -2 -3 -42 -25 -88 -48 l-83 -44 -93 51
c-84 45 -95 49 -110 35 -29 -26 -98 -56 -110 -48 -11 7 83 62 298 175 58 31
106 55 106 56 1 0 4 -7 8 -15z m701 -9 c707 -100 1315 -360 1860 -793 149
-118 439 -410 565 -568 372 -468 631 -1014 745 -1574 14 -68 25 -125 25 -127
0 -2 -24 15 -54 37 l-54 40 -22 97 c-132 581 -424 1151 -815 1590 -80 90 -80
90 -88 61 -4 -15 -12 -31 -17 -34 -5 -3 13 -68 41 -147 27 -78 48 -149 47
-157 -2 -8 -30 53 -63 137 -52 132 -62 152 -81 152 -12 0 -29 2 -36 5 -8 3
-49 -26 -97 -70 -113 -101 -128 -95 -19 8 70 66 86 87 82 104 -6 23 -14 25
-203 44 l-113 12 -23 -29 c-17 -22 -31 -28 -60 -28 -61 0 -92 56 -64 116 9 20
2 37 -48 122 -32 54 -67 102 -78 106 -53 20 -58 84 -8 96 20 5 31 2 45 -16 10
-12 18 -28 18 -35 0 -7 78 -54 173 -103 94 -49 217 -115 271 -147 82 -47 103
-55 120 -47 12 6 27 12 35 14 17 5 -186 190 -342 311 -339 264 -802 497 -1227
616 -303 85 -532 119 -853 128 -147 4 -230 10 -235 17 -4 6 -16 28 -25 50
l-18 39 253 -6 c142 -3 301 -12 363 -21z m-965 -17 c-8 -5 -71 -38 -140 -73
-90 -45 -156 -70 -235 -90 -450 -111 -903 -325 -1280 -604 -181 -135 -399
-331 -376 -340 8 -3 25 -16 38 -30 22 -24 23 -24 115 -14 51 6 120 14 153 17
50 6 64 12 85 37 14 16 36 30 48 31 27 2 42 20 100 127 31 58 38 79 31 93 -14
25 -2 56 27 69 21 10 28 8 46 -10 18 -18 20 -26 12 -49 -6 -18 -18 -29 -32
-31 -17 -3 -34 -26 -73 -104 l-51 -101 18 -33 c19 -35 18 -34 222 -79 18 -5
22 -1 22 20 0 14 4 25 9 25 5 0 8 14 7 30 -1 17 1 30 5 30 13 0 28 61 24 93
-3 18 10 -26 28 -98 27 -111 36 -131 57 -143 23 -13 31 -37 83 -261 32 -135
57 -253 57 -261 0 -12 -46 -28 -180 -65 l-180 -49 -17 25 c-84 120 -244 232
-407 284 l-69 22 54 7 c51 6 169 17 197 19 9 0 12 36 12 143 0 133 -1 143 -20
149 -11 3 -27 2 -35 -2 -30 -17 -325 -286 -320 -292 2 -4 -12 -8 -31 -9 -19
-2 -34 -1 -34 1 0 2 44 42 97 88 176 152 283 250 283 261 0 7 -30 8 -92 4
-206 -15 -229 -18 -235 -35 -10 -27 -45 -61 -64 -61 -14 0 -22 -20 -39 -97
-33 -147 -40 -172 -51 -179 -6 -3 -12 -4 -15 -1 -2 2 9 60 26 128 34 142 35
152 15 169 -8 7 -15 22 -15 34 -1 45 -222 -217 -382 -454 -46 -69 -102 -148
-124 -177 -21 -28 -51 -76 -67 -105 -54 -104 -180 -416 -237 -588 -177 -528
-229 -1102 -149 -1620 12 -74 25 -193 29 -265 4 -71 15 -161 24 -200 14 -59
15 -76 5 -108 -16 -48 -20 -41 -58 99 -98 360 -145 804 -122 1167 46 746 283
1400 724 1993 402 541 915 949 1523 1209 238 102 569 201 819 244 133 23 156
25 135 10z m-1407 -40 c70 -32 56 -130 -20 -145 -55 -11 -99 53 -77 111 5 13
49 40 71 45 1 0 13 -5 26 -11z m3900 -16 c10 -10 17 -31 17 -54 0 -49 -39 -84
-85 -75 -38 8 -53 23 -61 63 -5 27 -1 37 25 64 26 25 37 30 59 24 15 -3 35
-14 45 -22z m-1732 -138 c13 -51 20 -58 72 -74 20 -7 37 -16 37 -21 0 -4 -19
-13 -43 -19 -31 -7 -47 -18 -55 -36 -14 -31 -15 -46 -2 -25 9 13 10 13 10 0 0
-13 1 -13 10 0 9 13 10 13 10 0 0 -13 1 -13 10 0 7 11 10 11 10 2 0 -7 4 -11
9 -8 5 3 14 -1 21 -9 7 -8 24 -15 37 -15 22 0 16 -9 -54 -77 -102 -99 -181
-216 -217 -321 -11 -32 -14 -25 -50 145 -20 98 -41 182 -45 186 -6 6 -866
-202 -1116 -269 -21 -5 376 206 568 302 93 47 111 53 125 42 15 -12 16 -11 4
4 -12 15 -9 19 20 33 l33 16 -25 -20 c-27 -21 -28 -19 26 -36 8 -3 12 0 9 5
-4 6 10 7 35 4 22 -3 40 -2 40 3 0 5 9 9 19 9 11 0 17 -4 15 -8 -9 -14 14 -8
30 8 9 8 16 12 16 7 0 -4 5 -1 10 7 6 10 10 11 10 3 0 -7 5 -13 11 -13 5 0 7
6 3 13 -6 10 -4 10 7 0 7 -7 21 -13 32 -13 12 0 16 4 11 13 -5 9 -4 9 5 1 9
-9 22 -9 48 -1 28 9 36 8 44 -4 5 -8 9 -9 9 -4 0 6 14 12 31 13 21 2 28 -1 23
-9 -4 -8 -3 -9 5 -5 6 4 9 12 6 17 -5 7 23 12 51 8 4 0 11 5 15 13 7 10 9 10
9 1 0 -7 5 -13 11 -13 5 0 7 5 4 10 -3 6 -1 10 4 10 6 0 11 -4 11 -9 0 -5 7
-11 14 -14 10 -4 13 -1 9 9 -3 8 -25 19 -49 25 -51 13 -56 25 -14 34 47 10 78
41 85 85 9 52 22 51 36 -5z m-880 -67 c54 -29 99 -56 99 -60 0 -3 -38 -26 -85
-50 l-84 -43 -97 48 c-63 32 -100 45 -107 38 -5 -5 -16 -7 -25 -4 -9 4 -13 2
-9 -4 9 -14 -88 -65 -116 -61 -17 3 -2 14 63 49 47 26 123 67 170 92 47 26 87
47 88 47 2 0 48 -24 103 -52z m304 -68 c-3 -5 -12 -10 -18 -10 -7 0 -6 4 3 10
19 12 23 12 15 0z m1435 -36 c396 -103 638 -482 566 -884 -30 -162 -101 -294
-224 -412 l-69 -67 -56 21 -56 21 19 27 c95 133 -7 330 -171 330 -91 0 -196
-79 -214 -161 -4 -17 -12 -28 -18 -26 -100 40 -95 35 -102 87 -20 148 -193
237 -310 160 l-30 -19 -135 70 c-177 93 -174 90 -166 164 16 152 76 302 169
421 111 142 274 241 456 280 83 17 253 11 341 -12z m-2090 -88 l102 -54 -63
-35 c-118 -66 -103 -65 -219 -7 -57 29 -99 55 -94 60 11 10 156 90 165 90 3 0
52 -24 109 -54z m-300 -65 c-10 -21 -45 -37 -69 -32 -7 1 -10 -2 -6 -8 3 -6 4
-11 1 -11 -3 0 -7 4 -11 10 -3 5 16 20 42 34 59 31 56 30 43 7z m1229 -53 c0
-7 -19 -58 -42 -112 l-42 -100 -65 -16 c-36 -9 -79 -19 -97 -23 l-31 -6 39 97
c21 53 42 104 47 112 5 8 47 24 93 36 103 27 99 27 98 12z m-1344 -8 c3 -5 1
-10 -4 -10 -6 0 -11 5 -11 10 0 6 2 10 4 10 3 0 8 -4 11 -10z m62 -62 l101
-53 -81 -42 c-80 -42 -82 -42 -102 -24 -31 29 -117 72 -133 66 -7 -2 -11 -1
-8 4 3 5 -1 12 -10 15 -8 3 -12 10 -9 16 7 11 114 69 130 70 6 0 56 -23 112
-52z m930 -32 c4 -5 -3 -7 -15 -4 -18 5 -26 -6 -63 -94 -24 -54 -47 -102 -52
-105 -11 -7 -187 -52 -187 -48 0 1 18 46 41 100 22 54 38 100 35 103 -4 3 -6
1 -6 -5 0 -13 -48 -23 -69 -15 -10 4 4 11 34 20 28 7 88 24 135 37 87 24 137
28 147 11z m-1167 -17 c0 -3 -17 -11 -38 -17 -54 -16 -71 -33 -74 -70 -2 -30
-4 -31 -15 -16 -26 36 -16 62 35 88 43 23 92 31 92 15z m-1314 -130 c8 -9 36
-22 62 -29 l47 -12 -45 -15 c-63 -21 -79 -38 -97 -106 l-17 -58 -13 51 c-19
75 -28 87 -84 108 l-50 18 38 12 c21 6 48 21 60 32 20 18 42 73 44 110 0 8 9
-9 20 -39 10 -30 26 -62 35 -72z m5850 0 c11 -10 37 -25 59 -32 l40 -14 -52
-17 c-49 -16 -53 -21 -71 -69 -11 -29 -22 -61 -24 -72 -4 -16 -6 -15 -12 10
-21 86 -30 99 -85 127 -42 22 -50 29 -35 34 78 24 103 50 119 123 l7 34 18
-53 c10 -29 26 -60 36 -71z m-3702 72 c4 -5 -3 -7 -14 -4 -23 6 -26 13 -6 13
8 0 17 -4 20 -9z m-59 -15 c-11 -8 -23 -12 -26 -10 -4 2 -27 -42 -52 -99 l-44
-102 -92 -24 c-50 -13 -94 -22 -96 -19 -3 3 14 52 38 109 l43 104 85 23 c46
12 94 21 107 19 12 -3 25 0 28 4 3 5 10 9 17 9 6 0 2 -6 -8 -14z m-764 -22
c14 -17 5 -40 -24 -58 -25 -16 -52 14 -43 48 7 30 45 36 67 10z m429 -63 c0
-12 -91 -32 -105 -23 -5 3 8 12 30 18 49 15 75 17 75 5z m-120 -21 c0 -5 -10
-10 -22 -9 -22 0 -22 1 -3 9 11 5 21 9 23 9 1 1 2 -3 2 -9z m-75 -125 c0 -10
-8 -23 -17 -29 -38 -23 -78 35 -42 61 15 11 21 11 38 -1 12 -7 21 -21 21 -31z
m-185 -20 c26 -32 -13 -81 -47 -59 -35 22 -23 74 17 74 10 0 23 -7 30 -15z
m1380 7 c0 -26 -38 -43 -160 -72 -74 -17 -142 -34 -151 -36 -15 -4 -15 -10 -3
-62 18 -74 18 -102 0 -102 -9 0 -20 25 -31 75 -14 62 -20 75 -33 71 -9 -3
-114 -28 -232 -57 -118 -28 -216 -52 -217 -53 -2 -2 44 -210 53 -239 4 -12 13
-16 32 -12 15 3 -5 -10 -44 -29 -62 -31 -325 -106 -369 -106 -10 0 -15 7 -13
17 2 14 41 26 176 59 95 23 175 44 178 46 4 4 -37 200 -51 245 -2 7 -58 -3
-177 -33 -95 -24 -183 -44 -195 -44 -21 0 -40 16 -30 26 4 4 1227 308 1260
313 4 0 7 -3 7 -7z m1954 -94 c29 -30 57 -87 49 -101 -3 -6 -1 -7 5 -3 7 4 12
1 12 -7 0 -7 9 -23 20 -35 11 -12 20 -26 20 -32 0 -5 9 -10 20 -10 11 0 23 -6
26 -13 3 -8 10 -14 17 -14 7 0 25 -8 40 -18 l28 -18 -72 -19 c-40 -10 -116
-38 -169 -63 -53 -25 -99 -45 -103 -45 -4 0 3 24 14 53 33 83 58 214 60 312 1
50 4 78 6 63 2 -14 14 -37 27 -50z m-1654 -594 c88 -357 181 -733 207 -836 26
-103 44 -190 41 -194 -3 -3 -19 1 -35 10 -23 12 -32 25 -41 68 -35 154 -75
278 -89 278 -13 0 -13 -3 -3 -15 8 -9 8 -15 2 -15 -6 0 -12 -10 -14 -22 -2
-13 -9 -22 -17 -20 -10 2 -12 -4 -7 -22 5 -22 3 -24 -19 -22 -26 3 -48 16 -27
16 7 0 12 5 12 10 0 6 -6 10 -14 10 -8 0 -17 6 -19 13 -3 7 -6 5 -6 -6 -1 -15
-3 -16 -15 -5 -10 9 -11 15 -2 20 7 5 5 8 -6 8 -9 0 -19 -6 -21 -12 -4 -10 -8
-9 -16 2 -7 11 -11 -15 -13 -95 -3 -104 -4 -110 -24 -113 -22 -3 -22 -1 -28
270 -6 269 -13 1329 -9 1324 2 -1 75 -294 163 -652z m-206 -571 c-6 -346 -7
-363 -25 -363 -18 0 -19 13 -19 292 0 267 -3 326 -12 258 -2 -14 -7 -31 -11
-37 -12 -19 -27 -16 -20 5 3 9 -4 4 -17 -11 -19 -23 -20 -31 -9 -37 7 -5 10
-12 7 -15 -11 -11 -28 5 -28 26 0 11 -7 19 -17 19 -15 0 -16 -2 -3 -10 12 -7
10 -9 -8 -7 -14 1 -21 6 -18 14 3 7 2 13 -3 13 -7 0 -73 -240 -133 -488 -20
-83 -26 -96 -51 -109 -16 -8 -31 -13 -33 -10 -2 2 87 375 198 828 l203 825 3
-416 c2 -228 0 -578 -4 -777z m-1450 1040 c14 -46 85 -382 88 -415 2 -20 -1
-38 -7 -39 -15 -4 -124 454 -111 463 17 12 24 9 30 -9z m1271 -135 l-22 -93
-164 -88 c-442 -238 -796 -398 -1034 -467 -108 -32 -109 -32 -145 -14 -19 10
-39 20 -43 22 -5 2 -1 -10 7 -27 9 -17 12 -31 6 -31 -6 0 -10 -59 -10 -166 l0
-165 -67 -103 c-98 -150 -95 -145 -89 -121 3 11 15 52 27 90 31 103 32 290 1
398 -12 43 -32 97 -43 119 -11 22 -17 44 -12 48 4 4 49 17 98 30 161 40 427
128 570 187 158 65 472 222 740 371 99 55 185 100 191 101 7 1 3 -31 -11 -91z
m669 -52 c352 -187 485 -253 653 -325 218 -93 488 -176 725 -222 62 -12 115
-24 117 -25 2 -2 12 -101 22 -220 l17 -217 -82 -77 -81 -78 -7 32 c-6 29 -28
353 -28 414 0 28 -2 29 -105 52 -79 17 -105 26 -100 37 3 7 8 20 11 28 4 11
-4 9 -33 -7 l-39 -21 -119 37 c-261 82 -532 203 -930 415 -138 73 -252 135
-253 136 -7 6 -50 185 -44 185 3 0 127 -65 276 -144z m1725 -48 c5 -13 12 -58
16 -101 l7 -79 -69 7 c-37 4 -69 8 -70 9 -5 4 -29 177 -25 181 3 3 34 5 69 5
57 0 64 -2 72 -22z m-189 -96 c6 -46 10 -85 8 -86 -9 -8 -93 -24 -100 -20 -4
3 -8 15 -8 27 0 18 -2 19 -11 7 -8 -12 -10 -12 -8 5 1 11 -1 28 -5 37 -5 10
-9 32 -10 49 -1 30 3 34 54 55 30 12 58 19 61 16 4 -4 12 -45 19 -90z m317 46
c6 -7 14 -55 18 -106 l7 -94 -39 27 c-39 25 -40 28 -47 93 -3 37 -6 79 -6 95
0 27 1 27 28 13 16 -8 33 -21 39 -28z m-4700 -14 c-3 -3 -12 -4 -19 -1 -8 3
-5 6 6 6 11 1 17 -2 13 -5z m3628 -89 c-14 -25 -27 -45 -28 -45 -1 0 -23 8
-50 18 l-47 18 32 16 c18 9 51 30 73 46 37 29 40 29 43 11 2 -11 -8 -40 -23
-64z m-965 35 c0 -10 8 -21 18 -23 16 -4 16 -5 -1 -6 -10 -1 -21 10 -27 25
-13 32 -12 37 0 29 6 -3 10 -15 10 -25z m2370 -46 c0 -8 -7 -14 -15 -14 -15 0
-21 21 -9 33 10 9 24 -2 24 -19z m-2273 10 c-3 -3 -12 -4 -19 -1 -8 3 -5 6 6
6 11 1 17 -2 13 -5z m-2581 -80 c79 -39 204 -136 204 -159 0 -13 -167 -104
-173 -94 -1 2 -21 43 -45 91 -28 57 -65 111 -108 156 l-64 70 57 -15 c32 -8
90 -30 129 -49z m-479 -14 c-39 -42 -82 -103 -107 -153 -24 -45 -44 -84 -46
-85 -6 -8 -164 81 -164 93 0 18 87 93 157 135 57 35 172 79 206 80 14 0 1 -19
-46 -70z m153 -115 l0 -175 -47 0 c-53 1 -179 23 -190 34 -9 8 28 84 75 155
38 56 137 161 153 161 5 0 9 -79 9 -175z m119 129 c57 -51 143 -173 161 -230
10 -29 10 -38 -1 -45 -18 -11 -127 -29 -177 -29 l-41 0 -3 175 c-2 96 0 175 3
175 4 0 30 -21 58 -46z m-1103 18 c20 -13 36 -54 30 -78 -4 -13 -20 -31 -37
-40 -72 -37 -136 48 -82 109 16 17 69 23 89 9z m7128 -14 c49 -70 -41 -150
-104 -93 -24 22 -26 72 -3 97 24 27 87 24 107 -4z m-3908 -45 c-2 -10 -12 -45
-21 -78 -29 -101 -29 -102 -77 -109 -72 -12 -270 -82 -367 -130 -114 -58 -208
-118 -287 -184 l-62 -51 -81 46 c-45 25 -81 48 -80 52 1 12 131 114 227 179
112 75 320 179 437 218 81 27 265 72 298 73 13 1 17 -4 13 -16z m782 -24 c190
-49 395 -140 558 -250 83 -55 224 -168 224 -177 0 -4 -35 -28 -78 -53 l-77
-47 -60 48 c-182 144 -431 264 -650 313 l-60 13 -18 70 c-10 38 -21 82 -24 97
-5 28 -5 28 33 21 22 -3 90 -19 152 -35z m1714 31 c21 -6 39 -14 42 -18 7 -11
18 -91 18 -129 1 -18 4 -31 8 -28 6 4 33 -22 38 -37 1 -5 2 -18 2 -30 0 -13 5
-30 10 -38 9 -12 17 -7 50 30 35 40 39 43 40 22 0 -13 -14 -43 -31 -67 -18
-26 -29 -50 -26 -59 4 -9 2 -16 -4 -16 -5 0 -2 -11 7 -25 8 -13 13 -29 9 -35
-3 -5 -1 -10 6 -10 7 0 10 -3 6 -6 -17 -17 77 -158 112 -169 9 -2 22 -17 28
-32 7 -16 28 -37 48 -47 19 -11 41 -26 48 -35 6 -8 -2 -5 -20 7 -55 39 -157
82 -231 97 -72 15 -174 9 -235 -14 l-25 -10 -7 107 c-13 188 -32 363 -41 371
-5 5 -65 21 -134 35 -180 39 -173 34 -94 68 168 74 281 94 376 68z m388 -101
c0 -23 -28 -26 -37 -3 -6 16 15 37 29 28 4 -3 8 -14 8 -25z m267 -9 c7 -18 23
-34 44 -43 l34 -14 -37 -16 c-25 -10 -39 -24 -44 -41 -8 -34 -20 -33 -32 4 -7
19 -20 32 -36 36 -33 8 -33 15 4 36 16 9 32 28 36 42 8 34 17 33 31 -4z m-327
-76 c0 -14 -21 -19 -33 -7 -9 9 13 34 24 27 5 -3 9 -12 9 -20z m-5515 -29 c32
-19 73 -40 93 -46 38 -13 38 -5 8 -144 -9 -38 -16 -91 -16 -117 l0 -48 -145 0
-145 0 6 48 c10 78 34 164 64 228 26 53 65 114 75 114 1 0 28 -16 60 -35z
m1090 -55 c32 -63 63 -167 71 -239 l7 -61 -141 0 -141 0 -6 58 c-4 31 -14 91
-22 132 -9 41 -16 80 -17 86 0 6 42 34 94 61 l95 50 19 -21 c10 -11 28 -41 41
-66z m4951 15 c4 -16 18 -31 38 -39 l31 -13 -28 -14 c-16 -7 -34 -27 -41 -43
l-13 -31 -17 33 c-9 18 -29 38 -44 43 l-27 11 32 13 c20 9 35 23 39 39 8 33
22 33 30 1z m-5741 -64 c33 -6 82 -13 108 -16 l49 -6 -4 -115 -3 -114 -154 0
-154 0 7 68 c4 37 14 98 23 135 15 67 16 69 42 63 14 -3 53 -10 86 -15z m484
-18 c17 -66 31 -155 31 -198 0 -41 0 -41 -32 -37 -18 3 -70 29 -116 58 -45 30
-85 54 -88 54 -4 0 -3 -25 1 -55 l6 -55 -35 0 -36 0 0 114 0 115 58 6 c31 4
84 13 117 20 33 7 65 13 72 14 7 0 17 -16 22 -36z m4931 -43 c14 -27 -22 -69
-46 -54 -35 21 -41 44 -16 64 25 21 47 17 62 -10z m-3353 -76 c41 -5 83 -25
76 -37 -4 -7 6 -8 30 -4 21 3 37 3 37 -1 0 -4 -23 -22 -52 -40 l-51 -34 6 -71
c5 -58 4 -68 -6 -53 -32 49 -50 66 -71 66 -12 0 -27 5 -33 11 -13 13 -65 -8
-134 -51 -25 -17 -49 -30 -52 -30 -21 0 3 22 83 79 50 35 94 69 97 75 4 6 -1
5 -10 -3 -24 -19 -30 -9 -14 22 8 15 17 23 21 19 4 -4 7 -2 6 3 -1 6 -2 30 -1
55 l2 45 20 -24 c11 -14 32 -26 46 -27z m1310 -9 c-1 -40 2 -58 13 -65 8 -5
11 -12 8 -16 -8 -8 10 -23 112 -93 87 -60 79 -65 -21 -14 -74 37 -125 46 -139
24 -6 -10 -9 -11 -15 -1 -5 8 -19 -5 -41 -41 l-34 -53 2 79 3 80 -52 30 c-29
16 -52 33 -53 36 0 3 25 4 55 1 76 -6 97 2 125 47 14 22 28 41 32 41 4 0 6
-25 5 -55z m2233 -22 l25 -78 73 -24 c39 -13 72 -27 72 -31 0 -3 -32 -16 -70
-29 -77 -24 -89 -38 -111 -125 -6 -25 -15 -49 -19 -51 -5 -3 -18 26 -29 65
-24 78 -38 91 -119 115 -28 9 -54 20 -57 25 -3 5 26 18 64 30 38 11 73 26 79
33 5 6 17 37 26 67 10 30 19 61 21 68 9 27 21 9 45 -65z m-1225 56 c38 -11 39
-12 16 -21 -17 -6 -27 -5 -33 4 -7 10 -8 9 -5 -2 2 -8 12 -14 22 -13 12 1 14
-2 6 -10 -7 -7 -17 -5 -32 9 -12 10 -23 18 -26 16 -3 -2 -8 0 -11 4 -4 4 -2 4
5 0 6 -3 14 -2 17 3 4 5 -2 12 -11 14 -13 3 -14 5 -3 6 8 0 33 -4 55 -10z
m-1865 -29 c0 -5 -4 -10 -10 -10 -5 0 -10 5 -10 10 0 6 5 10 10 10 6 0 10 -4
10 -10z m5 -36 c-9 -9 -19 -13 -23 -10 -3 4 0 11 8 16 24 15 33 11 15 -6z
m2723 4 c34 -34 -6 -90 -48 -68 -35 19 -20 80 20 80 9 0 21 -5 28 -12z m660
-19 c6 -49 -58 -65 -73 -18 -9 27 13 51 44 47 20 -2 27 -9 29 -29z m-3384 -24
c-4 -8 -10 -12 -15 -9 -11 6 -2 24 11 24 5 0 7 -7 4 -15z m36 6 c0 -6 -4 -13
-10 -16 -5 -3 -10 1 -10 9 0 9 5 16 10 16 6 0 10 -4 10 -9z m1488 -13 c-8 -13
-57 -97 -108 -188 -144 -255 -331 -581 -357 -623 -23 -36 -43 -42 -43 -11 0
21 291 522 397 685 17 27 29 49 25 49 -4 0 -74 -66 -156 -147 -133 -133 -145
-143 -120 -98 15 28 32 56 37 63 5 7 8 14 6 17 -4 4 -190 -110 -372 -228 -48
-31 -91 -57 -95 -57 -4 0 -18 9 -31 19 l-24 18 44 30 c44 30 260 162 574 353
94 57 184 111 200 121 39 24 40 24 23 -3z m-2287 -245 c202 -123 378 -232 389
-241 22 -17 21 -18 -37 -63 -32 -26 -70 -56 -85 -68 l-28 -22 -271 258 c-149
142 -285 269 -301 282 l-30 24 35 -49 c19 -27 76 -121 127 -209 51 -88 130
-223 177 -301 52 -87 81 -146 78 -156 -4 -9 -2 -19 4 -23 7 -4 9 1 5 12 -5 17
-4 16 10 -1 12 -14 13 -23 5 -39 -10 -18 -15 -12 -53 54 -317 553 -403 701
-427 740 -16 25 -29 49 -29 53 0 11 46 -16 431 -251z m-1147 11 c121 -85 222
-156 224 -158 1 -2 -37 -9 -85 -16 -48 -7 -91 -16 -95 -19 -3 -3 29 -61 72
-128 l79 -122 -36 -21 c-20 -12 -41 -19 -48 -16 -6 2 -44 56 -84 120 -40 64
-74 116 -76 116 -3 0 -27 -30 -54 -66 -31 -40 -52 -61 -55 -53 -2 8 -18 111
-35 229 -17 118 -34 232 -37 253 -4 20 -3 37 2 37 5 0 108 -70 228 -156z m676
104 c0 -4 14 -30 31 -58 l31 -50 -50 -68 c-69 -93 -135 -207 -188 -323 -42
-95 -105 -283 -119 -362 -6 -33 -12 -38 -49 -48 -22 -6 -63 -17 -90 -25 -27
-8 -52 -12 -55 -9 -10 10 52 253 96 375 75 207 184 402 314 564 l44 54 17 -21
c10 -12 18 -25 18 -29z m-1498 -35 c4 -40 14 -102 23 -138 20 -86 19 -92 -7
-100 -13 -4 -54 -21 -92 -38 l-68 -31 -20 24 c-52 65 -118 244 -118 321 0 27
2 28 63 32 34 2 96 3 137 3 l75 -1 7 -72z m276 71 l92 -7 -2 -116 -3 -116 -35
-3 c-19 -1 -75 -9 -123 -18 -48 -9 -90 -14 -93 -11 -17 17 -59 250 -48 268 6
11 85 12 212 3z m229 -8 c4 -4 32 -194 33 -223 0 -9 -17 -13 -55 -13 l-55 0 0
125 0 125 36 -5 c20 -2 39 -6 41 -9z m3865 -53 c109 -165 181 -313 237 -487
18 -54 30 -99 29 -101 -10 -6 -364 -150 -371 -150 -4 0 -19 34 -33 75 -27 78
-87 209 -125 271 l-23 36 71 124 c39 68 92 163 118 212 26 48 48 87 50 87 1 0
23 -30 47 -67z m-3292 41 c0 -30 -32 -154 -41 -160 -19 -11 -40 18 -34 48 18
98 18 95 1 73 l-15 -20 -1 20 c-1 19 -1 19 -15 1 -7 -10 -18 -15 -24 -11 -6 3
-19 1 -28 -5 -15 -9 -14 -10 6 -4 19 5 23 3 18 -9 -4 -12 -2 -14 10 -10 12 5
15 2 11 -9 -4 -9 -1 -21 5 -28 7 -7 -30 15 -80 49 -51 34 -93 66 -93 71 0 6
56 10 140 10 120 0 140 -2 140 -16z m5040 -19 c20 -24 3 -57 -28 -53 -30 3
-41 30 -22 53 16 19 34 19 50 0z m-869 -49 c129 -28 221 -91 269 -185 15 -31
39 -66 51 -77 28 -25 501 -276 552 -293 26 -9 51 -9 91 -2 62 12 86 6 174 -38
157 -79 242 -234 229 -416 -12 -154 -194 -762 -218 -724 -6 10 -12 9 -30 -6
l-22 -20 17 32 c17 33 103 325 126 423 6 30 23 90 36 133 41 132 42 242 4 341
-10 27 -12 28 -24 11 -7 -10 -20 -16 -28 -12 -9 3 -21 0 -27 -6 -8 -8 -11 -5
-11 12 0 13 -15 38 -34 57 -18 18 -31 36 -27 40 3 4 -2 4 -11 1 -9 -3 -31 -2
-47 3 -19 5 -31 5 -31 -1 0 -5 -7 -9 -17 -9 -9 0 -32 -17 -52 -38 -30 -31 -42
-37 -70 -35 -34 3 -34 3 -15 -18 l19 -21 -35 18 c-64 32 -70 34 -70 25 0 -15
-49 -19 -54 -4 -3 8 -1 11 4 8 6 -3 10 -1 10 4 0 6 -8 12 -17 12 -16 1 -16 2
-1 6 9 2 19 11 22 20 6 13 4 14 -9 3 -13 -11 -18 -11 -28 0 -9 10 -9 11 1 6 6
-4 12 -2 12 3 0 6 -7 11 -15 11 -13 0 -14 4 -4 23 11 20 11 21 -5 8 -12 -10
-23 -11 -39 -4 -17 8 -26 6 -41 -8 -25 -24 -33 -24 -41 2 -7 21 -7 21 -19 -2
-17 -35 -39 -34 -109 5 -71 40 -106 48 -67 14 24 -20 24 -20 2 -14 -27 9 -41
-16 -21 -40 11 -13 9 -14 -17 -2 -16 7 -35 18 -42 25 -8 7 -18 10 -24 7 -7 -5
-9 2 -4 20 4 15 2 26 -4 26 -5 0 -10 -5 -10 -12 0 -9 -3 -9 -11 -1 -6 6 -18 9
-26 6 -8 -3 -13 0 -11 7 2 7 -3 15 -9 17 -7 3 -13 0 -13 -6 0 -6 -7 -11 -15
-11 -8 0 -15 -4 -15 -10 0 -5 -9 -10 -20 -10 -11 0 -20 4 -20 8 0 4 -10 8 -21
9 -21 2 -21 1 -3 -12 11 -8 14 -15 7 -15 -23 0 -42 12 -37 25 4 10 -1 12 -18
9 -22 -4 -22 -4 2 7 14 7 30 11 35 10 6 -2 7 0 3 4 -4 4 8 38 27 76 53 103 48
123 -42 168 -24 12 -43 23 -43 25 0 2 12 29 26 61 21 46 24 61 16 80 -14 31
-152 100 -181 90 -12 -4 -35 -31 -52 -61 -17 -30 -33 -54 -36 -54 -3 0 -32 12
-65 26 l-59 27 -23 -22 c-33 -31 -86 -133 -86 -165 0 -26 11 -35 105 -91 17
-10 17 -12 1 -40 -10 -17 -15 -23 -12 -14 3 13 -3 18 -25 21 -16 3 -29 1 -29
-4 0 -4 -11 -8 -25 -8 -14 0 -25 4 -25 10 0 5 -8 6 -17 3 -16 -6 -16 -4 1 13
20 19 20 19 -1 22 -12 2 -27 11 -34 20 -11 14 -11 15 1 5 8 -7 18 -13 23 -13
5 0 -2 9 -17 21 -14 11 -31 17 -37 13 -8 -4 -9 -3 -5 4 4 7 2 12 -3 12 -6 0
-11 -5 -11 -12 0 -6 -3 -8 -6 -5 -4 4 -1 14 7 23 11 14 10 15 -6 12 -14 -2
-21 5 -27 30 -8 31 -5 38 49 105 148 182 240 254 355 276 62 13 76 12 149 -3z
m-2852 -92 c-12 -49 -23 -90 -25 -92 -3 -4 -84 49 -84 55 0 3 6 3 14 0 23 -9
25 2 10 45 -26 74 -11 96 20 31 17 -35 19 -36 30 -19 6 10 19 26 29 35 9 8 17
22 17 30 0 8 2 12 5 9 3 -3 -4 -45 -16 -94z m771 32 c-12 -12 -15 -8 -25 22
-7 23 -6 23 14 6 13 -12 17 -22 11 -28z m249 21 c13 3 20 -2 25 -19 6 -23 6
-22 27 10 29 45 41 40 25 -10 -25 -82 -27 -93 -19 -83 4 6 15 12 23 13 19 5
14 -1 -33 -32 -26 -18 -39 -22 -42 -13 -11 33 -35 136 -34 148 1 9 3 8 6 -2 2
-11 11 -15 22 -12z m2560 -66 c13 -24 -8 -55 -34 -50 -28 6 -42 34 -26 53 18
22 48 20 60 -3z m211 -46 c0 -26 24 -49 65 -62 38 -12 36 -25 -7 -37 -38 -11
-54 -29 -63 -68 -9 -39 -21 -35 -37 14 -11 35 -19 43 -51 52 -45 13 -48 27 -9
40 40 13 51 24 63 68 8 33 13 37 25 28 8 -7 14 -22 14 -35z m-6570 -24 c0 -10
-11 -121 -25 -247 -30 -272 -30 -271 -7 -283 14 -8 33 5 101 66 45 42 87 87
92 100 18 48 69 36 69 -16 1 -15 32 -76 74 -141 78 -124 103 -142 124 -94 20
43 52 165 41 159 -5 -4 -9 -1 -9 5 0 6 -4 9 -9 6 -5 -3 -11 1 -15 9 -7 19 -10
19 62 -10 148 -60 324 -67 489 -19 92 27 96 27 90 17 -3 -5 -10 -87 -17 -183
-7 -96 -13 -176 -14 -177 -1 -1 -118 -32 -261 -69 -167 -43 -285 -68 -330 -70
l-70 -3 35 16 c19 9 39 15 43 14 5 -1 6 2 3 7 -2 4 11 21 31 38 93 77 93 74
25 98 -33 12 -47 12 -76 2 -19 -7 -38 -15 -41 -18 -11 -11 -36 -133 -31 -150
2 -10 1 -18 -2 -18 -4 0 -17 -3 -28 -6 l-22 -6 26 91 c25 91 25 92 6 129 -10
20 -19 38 -19 39 0 1 -71 18 -158 39 l-158 37 -21 -21 -21 -21 82 -166 c45
-92 80 -170 77 -172 -10 -10 -36 6 -36 22 0 30 -138 305 -153 305 -11 0 -16
-21 -21 -87 -16 -227 -31 -373 -36 -373 -7 0 -4 50 15 289 l13 164 -34 32
c-21 20 -34 42 -34 57 0 29 32 74 58 82 16 5 21 37 41 254 13 136 25 257 27
270 5 27 24 30 24 3z m2059 -91 c30 -55 80 -146 112 -202 32 -57 56 -104 54
-106 -1 -2 -26 8 -55 23 -28 14 -62 30 -76 35 l-24 10 0 -309 0 -309 57 15
c57 15 107 38 151 70 l24 17 -9 -50 c-4 -27 -7 -102 -5 -167 l3 -118 -53 -23
c-29 -14 -79 -30 -110 -37 l-58 -12 0 -334 0 -334 -25 -49 c-13 -27 -28 -51
-32 -53 -5 -3 -8 70 -9 161 -1 275 -6 498 -11 480 -2 -10 -8 -18 -12 -18 -4 0
-18 -9 -31 -20 -13 -11 -26 -17 -29 -14 -3 4 -1 9 6 11 7 2 9 11 6 19 -7 19
-23 18 -23 -1 0 -17 -16 -20 -25 -5 -3 6 -1 10 5 10 6 0 8 5 5 10 -4 6 -10 8
-15 5 -11 -7 -51 35 -44 46 2 4 0 10 -6 14 -5 3 -10 -1 -10 -9 0 -8 5 -18 10
-21 6 -4 4 -12 -5 -21 -12 -13 -15 -47 -15 -184 l0 -169 46 -107 c25 -59 63
-138 84 -176 34 -60 38 -72 28 -94 -6 -13 -16 -23 -21 -21 -14 4 -130 226
-166 318 l-31 78 0 644 0 643 24 62 c47 120 204 393 225 392 3 0 30 -46 60
-100z m4266 50 c0 -18 -6 -26 -21 -28 -26 -4 -40 24 -23 45 18 21 44 11 44
-17z m-2745 0 c18 -12 2 -12 -25 0 -13 6 -15 9 -5 9 8 0 22 -4 30 -9z m2035
-17 c30 -15 55 -30 55 -34 0 -19 -23 -18 -61 1 -22 12 -42 20 -44 18 -1 -2
-18 -29 -38 -60 -20 -32 -41 -58 -47 -58 -5 0 -35 11 -66 25 -31 14 -58 25
-60 25 -2 0 -13 -18 -24 -40 -11 -22 -25 -40 -30 -40 -16 0 -12 17 15 70 l25
50 61 -31 c34 -17 67 -28 75 -25 7 3 27 32 44 66 17 33 32 60 35 60 2 0 29
-12 60 -27z m-4875 -143 c0 -88 -4 -160 -8 -160 -5 0 -19 12 -33 27 -13 15
-16 21 -6 13 16 -12 20 -12 28 1 12 18 12 62 0 75 -6 5 -11 35 -12 66 -1 32
-5 62 -8 67 -4 6 -27 11 -51 12 -25 1 -53 6 -62 11 -12 6 -19 2 -24 -15 -4
-12 -7 -29 -6 -37 1 -8 -6 1 -17 20 l-20 35 28 12 c16 7 61 16 102 21 41 5 77
10 82 11 4 0 7 -71 7 -159z m178 144 c6 -2 12 -10 12 -19 0 -11 -11 -15 -39
-15 l-39 0 -7 -60 c-4 -33 -11 -60 -16 -60 -5 0 -9 -5 -9 -11 0 -5 5 -7 10 -4
6 3 10 2 10 -4 0 -5 -4 -13 -10 -16 -12 -8 -13 -65 -1 -65 5 0 19 12 32 26 13
14 34 29 47 35 14 5 20 14 16 21 -4 6 -3 8 4 4 6 -3 13 2 15 11 4 14 5 14 6 3
1 -19 -84 -126 -116 -148 l-23 -14 0 166 0 166 48 -6 c26 -3 53 -7 60 -10z
m-1530 -51 c3 -28 -1 -33 -23 -39 -29 -7 -55 10 -55 35 0 25 22 42 50 39 20
-2 26 -9 28 -35z m7858 12 c11 -43 -34 -73 -64 -43 -13 13 -16 50 -5 61 3 4
19 7 34 7 22 0 30 -6 35 -25z m-6771 -58 l16 -39 -21 15 c-12 8 -29 25 -37 37
-13 19 -13 24 -2 31 17 10 24 4 44 -44z m964 -1 c-14 -39 -23 -45 -33 -20 -7
18 8 50 26 57 20 7 21 1 7 -37z m1811 30 c0 -2 -13 -33 -29 -69 l-29 -65 -59
-12 c-288 -59 -531 -298 -592 -583 l-17 -82 -64 -34 -63 -34 6 79 c30 376 323
708 697 788 62 14 150 21 150 12z m282 -32 c93 -29 223 -93 211 -104 -4 -3
-31 -23 -60 -43 l-52 -36 -54 24 c-30 13 -89 32 -132 42 l-78 18 -28 63 c-16
35 -29 66 -29 69 0 13 145 -9 222 -33z m533 -21 c-10 -15 -50 -85 -90 -157
-148 -269 -475 -840 -491 -856 -3 -2 -14 6 -24 20 -18 24 -18 25 3 65 28 54
29 136 1 190 -25 47 -98 100 -151 108 -49 8 -108 -6 -146 -33 l-29 -22 -24 23
-24 24 263 178 c144 98 363 247 487 332 124 84 229 154 234 154 4 1 0 -11 -9
-26z m-3705 -12 c16 -16 31 -27 34 -24 2 2 7 -1 11 -7 5 -8 -1 -11 -16 -8 -16
2 -23 -1 -21 -11 1 -7 -15 1 -38 19 -40 32 -46 41 -33 53 13 14 35 6 63 -22z
m2949 -65 c21 -52 24 -54 68 -61 55 -8 174 -43 186 -55 5 -4 -8 -19 -28 -33
-35 -24 -39 -25 -77 -11 -42 14 -138 30 -138 22 0 -3 -5 -29 -10 -58 -8 -44
-7 -56 5 -70 15 -16 5 -25 -127 -118 -79 -54 -153 -106 -166 -113 -13 -8 -49
-58 -80 -113 -58 -101 -74 -106 -52 -17 18 76 68 166 118 213 52 48 86 67 182
101 74 27 78 35 60 123 l-12 57 -52 -7 c-167 -19 -355 -146 -444 -298 -42 -71
-80 -180 -84 -238 -3 -43 -2 -45 23 -42 24 3 26 1 26 -43 0 -44 -1 -45 -31
-45 -39 0 -176 31 -176 40 0 4 17 12 39 18 37 12 39 14 45 65 10 71 61 220 98
286 40 70 145 180 216 227 78 53 178 92 265 106 l74 11 18 54 c10 29 21 53 25
53 3 0 16 -24 29 -54z m-2698 27 c13 -16 12 -17 -3 -4 -10 7 -18 15 -18 17 0
8 8 3 21 -13z m5069 -44 l59 -31 -27 -54 c-29 -60 -42 -66 -18 -9 9 20 14 41
11 46 -3 4 -28 20 -55 35 -47 26 -63 44 -39 44 6 0 37 -14 69 -31z m-5039 4
c13 -16 12 -17 -3 -4 -10 7 -18 15 -18 17 0 8 8 3 21 -13z m-50 -57 c43 -48
43 -49 16 -42 -49 12 -132 45 -153 61 -10 8 -14 14 -9 13 6 -1 20 1 32 6 12 4
31 3 41 -3 24 -13 36 -3 20 18 -17 23 2 3 53 -53z m564 54 c3 -5 -9 -17 -27
-26 l-33 -17 24 27 c28 29 28 29 36 16z m4247 -110 c-16 -35 -32 -58 -36 -52
-4 6 8 40 25 74 41 80 49 63 11 -22z m-4435 26 c-3 -7 -15 -16 -26 -19 -21 -5
-21 -5 2 22 21 27 34 25 24 -3z m279 -71 c31 -59 34 -61 66 -44 17 9 19 8 14
-8 -11 -36 -46 -216 -46 -239 0 -27 -7 -32 -72 -49 l-50 -14 6 82 c18 218 33
327 46 327 4 0 20 -25 36 -55z m-1928 13 c17 -17 15 -64 -4 -82 -49 -50 -124
24 -77 76 18 20 63 24 81 6z m8006 -4 c21 -20 20 -53 -1 -76 -20 -22 -56 -23
-77 -2 -19 18 -21 65 -4 82 17 17 64 15 82 -4z m-5083 -99 c45 -29 68 -67 51
-87 -5 -7 -12 -28 -15 -46 -7 -45 16 -37 24 9 6 31 6 31 8 6 2 -49 -45 -133
-56 -100 -2 6 -13 9 -23 6 -12 -3 -20 0 -20 7 0 10 -3 10 -15 0 -13 -11 -15 2
-15 109 0 75 4 121 10 121 6 0 28 -11 51 -25z m1807 -47 c60 -106 102 -241
109 -349 l6 -89 -60 30 -61 30 -17 74 c-18 82 -55 184 -81 224 -16 24 -15 28
17 88 19 35 37 64 40 64 3 0 24 -33 47 -72z m2232 8 c0 -3 -4 -8 -10 -11 -5
-3 -10 -1 -10 4 0 6 5 11 10 11 6 0 10 -2 10 -4z m-1856 -82 c255 -64 1175
-301 1350 -347 65 -17 115 -32 110 -34 -59 -19 -1694 -432 -1694 -428 0 1 7
19 15 39 10 24 22 36 35 36 11 0 109 22 217 49 109 27 384 95 611 151 227 57
411 104 409 107 -3 2 -72 -1 -153 -6 -82 -5 -350 -13 -596 -16 l-448 -6 0 24
0 24 708 6 c389 3 721 10 737 15 45 14 -169 21 -852 28 l-593 7 0 24 0 24 378
-7 c280 -5 381 -4 386 4 5 8 1 10 -10 5 -14 -5 -15 -3 -7 12 6 10 8 26 6 36
-3 9 1 19 9 22 7 2 2 2 -10 0 -15 -2 -21 0 -17 7 3 5 1 10 -4 10 -6 0 -11 -7
-11 -15 0 -8 5 -15 11 -15 23 0 4 -44 -23 -51 -22 -6 -27 -3 -32 17 -5 20 -13
24 -41 24 -26 0 -33 3 -29 15 4 8 1 15 -4 15 -6 0 -14 -9 -17 -20 -3 -11 -14
-20 -23 -19 -11 0 -12 3 -4 6 6 2 12 10 12 16 0 7 12 21 27 31 14 11 24 15 20
10 -3 -6 15 -10 46 -11 38 0 -53 26 -337 96 -245 62 -391 103 -396 112 -14 25
-22 59 -14 59 4 0 107 -25 228 -56z m1334 49 c-10 -2 -26 -2 -35 0 -10 3 -2 5
17 5 19 0 27 -2 18 -5z m991 -49 c41 -53 13 -114 -52 -114 -61 0 -94 66 -57
113 29 37 80 37 109 1z m-3804 -14 c16 -18 17 -22 4 -35 -13 -13 -17 -13 -37
1 -27 19 -30 54 -4 54 11 0 27 -9 37 -20z m2858 -18 c23 -21 40 -60 31 -74 -4
-5 -13 3 -21 20 -27 57 -89 67 -134 23 -23 -24 -29 -26 -29 -12 0 18 34 54 60
64 23 9 72 -1 93 -21z m567 15 c0 -2 -10 -12 -22 -23 l-23 -19 19 23 c18 21
26 27 26 19z m1280 -21 c0 -2 -7 -7 -16 -10 -8 -3 -12 -2 -9 4 6 10 25 14 25
6z m-3727 -48 c30 -79 47 -143 53 -205 l7 -63 46 -13 46 -13 -72 -22 c-39 -12
-86 -22 -105 -22 -32 0 -33 1 -34 46 -1 40 1 45 18 40 34 -8 47 2 37 32 -64
208 -62 198 -43 231 10 17 21 31 25 31 3 0 14 -19 22 -42z m-953 28 c0 -3 -4
-8 -10 -11 -5 -3 -10 -1 -10 4 0 6 5 11 10 11 6 0 10 -2 10 -4z m3520 -16 c28
-28 27 -84 -2 -104 -34 -24 -73 -20 -97 10 -27 35 -26 59 4 89 29 30 68 32 95
5z m77 -2 c-3 -8 -6 -5 -6 6 -1 11 2 17 5 13 3 -3 4 -12 1 -19z m-4925 -165
c2 -60 3 -110 1 -112 -1 -2 -186 -7 -410 -12 -225 -4 -409 -8 -411 -8 -2 -1 0
-5 3 -11 3 -5 26 -10 51 -10 25 0 43 -3 40 -8 -2 -4 13 -6 35 -4 22 2 45 0 52
-6 6 -5 92 -29 189 -53 97 -24 175 -47 172 -50 -2 -4 3 -10 12 -13 8 -3 12 -2
9 4 -7 12 10 11 45 -1 25 -9 25 -9 -2 -5 -20 2 -28 -1 -28 -11 0 -11 7 -14 28
-9 23 5 24 4 7 -5 -15 -7 -71 3 -235 46 -118 30 -286 71 -372 92 -87 20 -156
38 -154 40 5 5 929 242 948 242 14 1 17 -14 20 -106z m2933 89 c15 -11 18 -49
4 -57 -6 -4 -16 -1 -21 6 -7 11 -11 11 -15 2 -5 -15 -33 -18 -33 -4 0 8 36 24
51 23 3 -1 6 6 6 14 0 17 -14 19 -19 2 -3 -7 -9 -8 -18 -3 -11 7 -10 10 6 16
25 10 27 10 39 1z m64 -1 c7 -5 11 -13 8 -18 -3 -5 10 -10 29 -11 19 -2 34 2
34 7 0 15 68 10 82 -6 9 -11 13 -11 19 -1 7 10 9 9 9 -4 0 -10 8 -18 18 -18 9
0 13 -4 7 -8 -5 -4 -10 -13 -10 -21 0 -8 -8 -19 -17 -25 -22 -13 -54 3 -52 27
1 10 -5 13 -20 10 -17 -4 -18 -3 -6 6 12 8 12 11 1 11 -8 0 -11 6 -7 16 4 10
1 14 -6 12 -7 -3 -12 -20 -12 -38 -1 -41 -31 -54 -53 -24 -8 10 -21 19 -31 19
-9 0 -16 6 -14 13 1 6 -2 12 -8 12 -5 0 -10 4 -10 10 0 5 7 7 15 4 10 -4 15 0
15 11 0 9 -4 13 -10 10 -5 -3 -10 -1 -10 4 0 13 10 14 29 2z m-129 -5 c0 -3
-4 -8 -10 -11 -5 -3 -10 -1 -10 4 0 6 5 11 10 11 6 0 10 -2 10 -4z m-5255 -76
c20 -76 37 -96 105 -121 l60 -22 -56 -23 c-75 -30 -89 -45 -109 -117 l-18 -62
-9 38 c-17 80 -49 118 -124 146 l-47 18 51 17 c64 22 97 59 113 131 7 30 14
53 16 51 2 -2 10 -27 18 -56z m8127 -86 c8 -8 40 -25 72 -38 l57 -24 -33 -6
c-75 -14 -121 -60 -142 -143 l-13 -48 -12 53 c-17 70 -50 107 -113 128 l-51
17 62 28 c53 24 64 34 81 73 11 24 23 59 27 77 6 31 7 30 28 -35 12 -37 28
-74 37 -82z m235 54 c-2 -18 -4 -4 -4 32 0 36 2 50 4 33 2 -18 2 -48 0 -65z
m60 -60 c-2 -29 -3 -6 -3 52 0 58 1 81 3 53 2 -29 2 -77 0 -105z m-4583 36
c-28 -67 -12 -176 34 -228 11 -12 13 -20 6 -23 -6 -2 -105 -103 -220 -225
-115 -122 -226 -239 -246 -261 -55 -57 -46 -66 15 -14 44 37 196 140 641 433
33 21 65 43 73 49 9 7 19 4 33 -11 l21 -20 -276 -175 c-152 -96 -357 -227
-457 -292 -99 -65 -182 -116 -184 -114 -5 5 493 913 519 945 8 10 15 8 33 -9
21 -19 21 -23 8 -55z m3094 65 c33 -11 62 -47 62 -76 0 -13 -8 -8 -28 17 -24
28 -36 34 -67 34 -30 0 -44 -7 -66 -32 -22 -25 -29 -28 -29 -15 1 25 30 60 60
72 33 13 32 13 68 0z m-7258 -24 c0 -16 -6 -25 -15 -25 -18 0 -20 21 -3 38 17
17 18 16 18 -13z m5630 21 c0 -3 -4 -8 -10 -11 -5 -3 -10 -1 -10 4 0 6 5 11
10 11 6 0 10 -2 10 -4z m2273 -28 c9 -11 17 -31 17 -45 0 -28 -41 -73 -67 -73
-14 0 -15 2 -4 9 16 11 6 31 -16 31 -10 0 -13 -6 -9 -16 10 -25 -17 -11 -34
19 -18 33 -5 77 30 94 30 15 59 8 83 -19z m-7946 -160 c-2 -35 -3 -9 -3 57 0
66 1 94 3 63 2 -32 2 -86 0 -120z m4461 152 c55 -34 77 -112 47 -170 -25 -48
-62 -70 -116 -70 -127 0 -175 159 -73 239 35 27 98 28 142 1z m1552 -10 c-18
-12 -30 -13 -30 -2 0 4 10 9 22 9 18 2 20 0 8 -7z m43 4 c14 -15 -24 -33 -66
-32 -37 0 -43 3 -34 13 7 8 16 10 22 4 15 -15 55 -11 55 6 0 15 12 20 23 9z
m1632 -69 c34 -33 33 -77 -2 -105 -70 -55 -151 42 -88 105 13 14 34 25 45 25
12 0 32 -11 45 -25z m-7660 -15 c3 -5 1 -10 -4 -10 -6 0 -11 5 -11 10 0 6 2
10 4 10 3 0 8 -4 11 -10z m8762 -62 c-3 -8 -6 -5 -6 6 -1 11 2 17 5 13 3 -3 4
-12 1 -19z m-6557 3 c0 -8 -90 -3 -99 5 -2 2 19 4 47 4 29 0 52 -4 52 -9z
m520 -8 c0 -17 -12 -17 -167 -10 -93 4 -207 8 -255 8 -49 0 -88 4 -88 10 0 5
102 9 255 9 236 0 255 -1 255 -17z m2517 -55 c-3 -40 -13 -100 -22 -133 -19
-72 -68 -182 -73 -166 -2 6 -8 9 -12 6 -5 -3 2 27 16 67 36 108 60 248 44 258
-9 6 -5 12 16 24 16 8 31 15 33 16 2 0 1 -33 -2 -72z m-3503 -9 c121 -33 226
-59 233 -59 7 0 13 -4 13 -9 0 -19 -36 -17 -96 5 -230 85 -503 27 -689 -147
-35 -33 -77 -82 -95 -108 -29 -46 -62 -67 -82 -55 -5 3 -3 13 4 22 12 15 11
16 -4 3 -15 -11 -21 -11 -33 -1 -23 19 -19 32 35 114 59 87 137 161 232 218
79 47 202 89 238 81 14 -3 124 -32 244 -64z m1793 -13 c14 -91 43 -194 78
-273 13 -29 19 -51 13 -47 -8 5 -9 2 -5 -9 3 -10 4 -17 1 -17 -3 0 -25 42 -49
93 -48 101 -72 182 -82 277 -6 57 -5 62 13 58 15 -3 21 -18 31 -82z m33 54 c8
-5 11 -10 5 -10 -5 0 -17 5 -25 10 -8 5 -10 10 -5 10 6 0 17 -5 25 -10z m1596
-22 c-7 -13 -22 -44 -31 -71 -10 -26 -20 -46 -22 -43 -2 2 1 31 8 65 11 56 17
65 52 70 4 0 1 -9 -7 -21z m-1556 3 c0 -6 -4 -12 -8 -15 -5 -3 -9 1 -9 9 0 8
4 15 9 15 4 0 8 -4 8 -9z m5157 -13 c-3 -8 -6 -5 -6 6 -1 11 2 17 5 13 3 -3 4
-12 1 -19z m-5150 -40 c-3 -7 -5 -2 -5 12 0 14 2 19 5 13 2 -7 2 -19 0 -25z
m2492 -2 c-3 -3 -11 5 -18 17 -13 21 -12 21 5 5 10 -10 16 -20 13 -22z m901
11 c13 -17 12 -19 -6 -16 -25 5 -74 -26 -74 -46 0 -7 -9 -16 -19 -20 -11 -3
-18 -12 -15 -19 3 -7 -2 -16 -10 -19 -9 -4 -16 -12 -16 -20 0 -7 -8 -22 -18
-33 -10 -10 -23 -39 -28 -64 -6 -26 -15 -44 -22 -42 -7 1 -12 -4 -12 -12 0 -8
-5 -16 -11 -18 -5 -2 -12 -26 -14 -53 -4 -46 -3 -48 10 -31 8 11 15 35 15 53
0 51 17 39 25 -17 4 -27 11 -50 15 -50 5 0 10 -10 12 -22 2 -16 32 -41 106
-87 56 -36 98 -67 93 -71 -6 -3 43 -27 107 -53 64 -26 124 -52 132 -57 38 -25
-27 -6 -166 45 l-148 56 -43 -23 c-24 -13 -43 -26 -43 -29 0 -4 -14 -22 -30
-39 -27 -29 -32 -42 -37 -114 -7 -90 -18 -81 -28 24 -7 64 -7 65 -57 98 -29
20 -56 31 -67 27 -16 -5 -51 -68 -51 -94 0 -7 -4 -10 -9 -6 -9 5 -27 -32 -23
-48 1 -4 -4 -10 -12 -13 -10 -4 -8 -11 11 -30 23 -23 24 -27 10 -47 -9 -14
-25 -22 -41 -22 -22 1 -27 -5 -33 -35 -4 -19 -7 -37 -8 -40 0 -3 -10 -16 -23
-30 -12 -13 -20 -30 -17 -38 2 -7 1 -11 -4 -8 -8 5 -30 -15 -45 -41 -4 -8 -2
-11 6 -8 7 3 -41 -50 -107 -117 -66 -68 -142 -155 -169 -194 l-48 -71 -56 -7
c-32 -3 -67 -9 -80 -12 -17 -5 4 28 84 127 179 223 295 419 389 659 48 122
108 362 130 515 9 66 18 121 18 122 2 1 412 110 412 109 1 -1 7 -9 15 -19z
m-1097 -16 c3 -14 0 -17 -14 -14 -13 4 -19 0 -19 -11 0 -9 -4 -16 -10 -16 -14
0 -13 8 7 40 18 31 28 31 36 1z m92 9 c0 -8 -8 -16 -17 -18 -13 -2 -18 3 -18
18 0 15 5 20 18 18 9 -2 17 -10 17 -18z m2762 -12 c-3 -7 -5 -2 -5 12 0 14 2
19 5 13 2 -7 2 -19 0 -25z m-3088 -18 c6 0 11 -4 11 -10 0 -15 -16 -12 -30 5
-7 8 -16 13 -20 10 -10 -6 -21 21 -12 30 4 3 14 -3 23 -14 10 -12 22 -21 28
-21z m71 24 c0 -8 -4 -14 -10 -14 -5 0 -7 -7 -3 -16 4 -12 2 -15 -8 -12 -8 3
-13 11 -11 17 1 6 -2 11 -8 11 -22 0 -8 25 15 26 15 1 25 -3 25 -12z m37 -32
c-24 -23 -44 -3 -26 26 11 17 14 18 27 5 13 -13 13 -16 -1 -31z m73 28 c-6
-11 -15 -20 -20 -20 -13 0 -12 8 3 25 18 21 29 18 17 -5z m-3288 -17 c-6 -2
-9 -10 -6 -15 4 -7 2 -8 -4 -4 -18 11 -14 26 6 25 10 0 12 -3 4 -6z m2201 -18
c183 -87 220 -242 85 -360 -25 -22 -85 -62 -134 -89 -119 -66 -142 -84 -170
-132 -43 -74 -31 -136 42 -214 54 -58 117 -99 309 -201 168 -89 270 -180 298
-263 23 -68 22 -163 -3 -225 -36 -92 -59 -117 -200 -210 -154 -102 -371 -233
-377 -228 -8 9 109 457 132 501 30 59 32 113 5 165 -26 52 -71 88 -199 157
-258 140 -339 203 -387 300 -46 94 -34 205 32 291 41 54 118 98 274 157 164
63 217 95 243 149 23 45 12 89 -33 132 -28 27 -28 28 -12 61 19 41 28 41 95 9z
m-2156 9 c-3 -3 -12 -4 -19 -1 -8 3 -5 6 6 6 11 1 17 -2 13 -5z m96 -20 c10
-3 17 -15 17 -29 l0 -23 -62 16 c-54 13 -59 16 -37 24 19 8 21 11 9 19 -15 10
26 6 73 -7z m-581 -14 c51 -14 120 -94 169 -195 46 -96 49 -115 15 -115 -20 0
-29 10 -50 55 -36 79 -81 142 -150 208 -63 60 -60 68 16 47z m3608 0 c0 -5 -2
-10 -4 -10 -3 0 -8 5 -11 10 -3 6 -1 10 4 10 6 0 11 -4 11 -10z m-3850 -67
c48 -15 86 -22 106 -18 29 5 37 0 89 -57 31 -35 65 -80 76 -100 l19 -36 -33
-7 c-17 -4 -49 -18 -69 -31 l-38 -24 -1 62 c-1 87 -10 109 -48 132 -33 19 -34
19 -100 -2 -37 -12 -70 -22 -73 -22 -5 0 -19 47 -23 75 -2 22 -26 54 -42 58
-10 2 0 2 22 -1 22 -2 74 -15 115 -29z m4555 -122 c-51 -305 -159 -578 -329
-836 -79 -119 -191 -265 -205 -265 -4 0 -13 11 -19 25 -10 22 -9 29 9 48 79
84 210 287 278 430 40 84 55 130 25 75 -9 -17 -20 -25 -29 -22 -8 4 -15 2 -15
-4 0 -6 6 -13 13 -15 6 -3 2 -6 -9 -6 -15 -1 -27 -13 -38 -36 -9 -19 -23 -35
-31 -35 -18 0 -20 16 -2 23 7 3 8 6 1 6 -6 1 -33 -36 -59 -81 -52 -90 -185
-277 -197 -278 -4 0 -11 12 -14 26 -5 18 -1 34 14 52 120 154 240 361 307 527
39 96 87 276 105 390 l11 70 97 26 97 25 3 -24 c2 -14 -4 -68 -13 -121z
m-4101 126 c11 -8 17 -23 14 -38 -3 -23 -4 -22 -25 14 -23 38 -20 46 11 24z
m-744 -38 c0 -10 5 -19 10 -19 6 0 8 -11 4 -27 -10 -44 -18 -50 -25 -23 -11
39 -10 102 1 95 6 -3 10 -15 10 -26z m907 3 c6 -4 21 -65 33 -137 22 -133 69
-306 115 -430 38 -101 155 -338 209 -421 42 -65 45 -74 35 -98 -7 -14 -15 -26
-18 -26 -11 0 -109 163 -180 300 -109 212 -205 521 -236 768 -6 46 -5 52 12
52 10 0 23 -4 30 -8z m4453 -5 c0 -15 47 -67 60 -67 19 0 9 -21 -15 -32 -14
-6 -30 -24 -37 -40 -13 -28 -28 -38 -28 -17 0 7 -16 27 -36 46 l-36 34 27 21
c14 11 31 31 35 44 10 25 30 33 30 11z m-4336 -27 c16 -6 24 -29 42 -129 42
-230 145 -501 260 -687 42 -66 49 -84 41 -102 -6 -12 -13 -22 -16 -22 -8 0
-101 158 -151 255 -94 185 -168 426 -195 636 -5 42 -8 46 -43 57 l-37 10 40
-5 c22 -3 49 -9 59 -13z m5431 -126 c-58 -442 -213 -924 -414 -1286 -185 -333
-378 -586 -655 -863 -271 -271 -570 -489 -926 -678 -170 -90 -498 -224 -511
-209 -3 4 -11 22 -17 40 -10 28 -9 34 6 39 110 40 358 150 478 213 940 486
1623 1343 1870 2348 19 81 55 192 79 247 24 55 56 139 71 187 16 48 30 85 31
84 2 -2 -4 -56 -12 -122z m-5106 87 c12 -8 12 -12 -2 -25 -8 -9 -22 -16 -29
-16 -10 0 -10 2 1 9 8 5 11 16 8 25 -7 18 1 20 22 7z m15 -46 c-4 -8 -10 -15
-15 -15 -4 0 -6 7 -3 15 4 8 10 15 15 15 4 0 6 -7 3 -15z m109 8 c-7 -2 -13
-13 -13 -23 0 -10 6 -20 13 -23 6 -2 8 -8 4 -13 -5 -5 -13 -1 -18 8 -6 11 -16
15 -27 11 -13 -5 -11 1 7 20 14 15 29 27 35 26 6 0 5 -3 -1 -6z m-1123 -271
c0 -176 -4 -254 -13 -271 -20 -39 -59 -62 -107 -63 -74 -1 -111 63 -75 131 18
37 76 64 115 56 l30 -7 0 122 0 122 -27 -7 c-14 -3 -78 -25 -142 -48 l-116
-42 -5 -188 -5 -189 -33 -29 c-43 -39 -111 -41 -147 -4 -29 28 -31 54 -10 95
20 39 69 64 112 57 l33 -6 0 194 c0 124 4 196 10 200 25 16 365 133 372 129 5
-3 8 -116 8 -252z m1047 243 c0 -8 -4 -12 -9 -9 -4 3 -8 9 -8 15 0 5 4 9 8 9
5 0 9 -7 9 -15z m-17 -48 c0 -4 -6 -2 -14 5 -8 7 -12 17 -9 22 5 8 23 -12 23
-27z m-393 17 c-3 -3 -12 -4 -19 -1 -8 3 -5 6 6 6 11 1 17 -2 13 -5z m453 -5
c0 -6 -9 -8 -20 -4 -13 4 -20 2 -20 -6 0 -7 -3 -10 -6 -6 -3 3 -3 10 1 16 8
14 45 14 45 0z m2068 -9 c-7 -10 -14 -17 -17 -15 -4 4 18 35 25 35 2 0 -1 -9
-8 -20z m807 -66 c152 -61 165 -68 159 -88 -18 -58 -89 -213 -139 -301 -50
-89 -159 -250 -176 -261 -4 -2 -14 7 -23 21 -16 25 -15 27 47 114 54 75 176
291 152 269 -5 -4 -14 -3 -21 3 -9 7 -20 6 -38 -6 -24 -16 -31 -14 -27 9 1 5
-5 3 -14 -4 -14 -12 -18 -11 -26 1 -7 12 -13 12 -39 -3 -30 -17 -30 -17 -30 7
0 14 -3 25 -7 25 -14 0 -53 -48 -53 -64 0 -9 -5 -16 -11 -16 -5 0 -8 4 -4 9 3
5 1 12 -4 15 -5 4 -19 -9 -30 -28 -35 -56 -47 -62 -65 -28 -14 28 -14 31 21
82 42 63 94 172 119 253 10 31 24 57 31 57 7 0 87 -30 178 -66z m-5507 33 c17
-13 15 -62 -4 -81 -23 -24 -61 -20 -80 9 -39 60 26 117 84 72z m8002 3 c53
-53 -16 -134 -72 -83 -25 23 -23 68 4 87 30 21 44 20 68 -4z m-7085 -71 c27
-86 36 -166 20 -171 -16 -5 -82 223 -70 242 14 22 25 6 50 -71z m-332 -8 c-26
-88 -33 -163 -23 -255 10 -80 9 -90 -7 -102 -27 -21 -31 -18 -42 36 -22 101
-7 341 24 391 3 4 18 1 34 -8 28 -17 28 -17 14 -62z m2570 2 c15 -19 27 -40
27 -45 0 -20 -113 -220 -149 -266 -21 -26 -100 -114 -175 -196 -75 -82 -151
-167 -169 -190 l-32 -41 45 34 c25 19 50 38 55 42 6 4 16 4 24 0 8 -6 -17 -26
-78 -65 -93 -57 -111 -66 -93 -43 5 6 87 149 182 317 313 555 301 536 319 511
9 -12 28 -38 44 -58z m1922 -353 c125 -223 232 -411 238 -417 19 -24 -8 -12
-83 37 -72 48 -81 72 -11 29 18 -11 35 -19 36 -17 2 2 -41 51 -94 109 -53 59
-178 197 -278 308 -101 110 -183 203 -183 206 0 3 20 30 45 60 25 31 52 69 61
86 13 27 18 29 29 18 7 -8 115 -196 240 -419z m-4062 333 c14 -47 7 -80 -14
-68 -9 6 -29 71 -29 98 0 37 30 16 43 -30z m784 22 c25 -18 37 -55 112 -346
53 -203 56 -219 43 -219 -4 0 -23 48 -41 108 -42 131 -51 154 -65 149 -6 -3
-19 0 -29 5 -15 8 -17 6 -12 -14 29 -122 42 -204 36 -221 -6 -15 -15 5 -40 84
-45 139 -108 359 -112 384 -9 64 57 106 108 70z m773 5 c0 -5 -5 -10 -11 -10
-5 0 -7 5 -4 10 3 6 8 10 11 10 2 0 4 -4 4 -10z m-588 -22 c8 -7 21 -40 28
-73 11 -52 94 -311 114 -357 6 -12 -4 -29 -33 -60 -34 -36 -43 -40 -51 -28
-14 21 -12 40 3 40 6 0 25 13 40 29 28 28 28 30 13 66 -10 23 -20 35 -28 31
-7 -3 -21 -9 -30 -12 -10 -4 -18 -10 -18 -15 0 -5 -4 -9 -8 -9 -5 0 -23 48
-41 108 -18 59 -45 146 -60 195 -15 48 -25 89 -23 92 10 10 79 5 94 -7z m4766
-41 c2 -12 -3 -17 -17 -17 -12 0 -21 6 -21 13 0 31 32 34 38 4z m-5899 -38
c15 -43 14 -69 -3 -69 -14 0 -36 49 -36 81 0 31 27 22 39 -12z m4465 -127 c2
-4 -4 -9 -15 -9 -11 -1 -17 2 -14 8 7 11 22 12 29 1z m64 -17 c-3 -3 -9 2 -12
12 -6 14 -5 15 5 6 7 -7 10 -15 7 -18z m92 5 c0 -5 -5 -10 -11 -10 -5 0 -7 5
-4 10 3 6 8 10 11 10 2 0 4 -4 4 -10z m-3759 -321 c-9 -3 -32 -8 -51 -11 -34
-6 -35 -5 -36 27 -1 19 -5 42 -9 52 -5 10 -9 23 -10 28 0 6 -6 9 -11 8 -6 -1
0 19 13 44 17 34 23 64 24 112 l0 66 48 -160 c41 -138 45 -161 32 -166z m5257
282 c3 -8 -4 -12 -19 -9 -13 1 -25 11 -27 20 -3 15 1 16 19 9 13 -4 25 -13 27
-20z m-6908 -15 c20 -25 8 -61 -21 -64 -36 -4 -55 21 -41 53 13 28 43 33 62
11z m7860 -1 c7 -8 10 -25 6 -40 -11 -41 -76 -29 -76 15 0 36 47 53 70 25z
m-7111 -39 c18 -22 182 -508 176 -523 -9 -24 -20 -7 -65 97 -28 66 -47 99 -55
96 -7 -2 -21 4 -31 15 -9 10 -18 18 -20 16 -2 -1 8 -40 20 -85 22 -75 22 -82
7 -82 -14 0 -34 48 -90 209 -76 220 -78 234 -33 260 25 15 78 13 91 -3z m2882
-406 c53 -217 122 -496 153 -620 l55 -225 -5 455 c-3 250 -7 461 -9 468 -6 16
5 15 30 -4 19 -14 20 -31 27 -612 4 -328 10 -617 15 -642 8 -41 10 -43 20 -25
16 26 15 13 -1 -55 -8 -32 -16 -49 -19 -40 -16 40 -427 1689 -427 1713 0 4 14
1 32 -6 l32 -13 97 -394z m934 380 c3 -6 -1 -7 -9 -4 -18 7 -21 14 -7 14 6 0
13 -4 16 -10z m1125 -40 c0 -5 -5 -10 -11 -10 -5 0 -7 5 -4 10 3 6 8 10 11 10
2 0 4 -4 4 -10z m-5062 -218 c34 -103 62 -191 62 -196 0 -4 -29 -6 -65 -4 -36
2 -65 1 -65 -2 0 -3 13 -26 29 -51 31 -49 75 -74 116 -66 18 3 29 -1 35 -14
22 -40 -98 -32 -153 11 -38 30 -61 73 -101 188 -41 118 -45 175 -16 231 18 35
72 91 88 91 4 0 35 -85 70 -188z m2727 122 c-9 -22 -26 -66 -37 -99 -27 -80
-53 -110 -33 -39 12 44 41 129 60 177 5 11 11 15 17 9 6 -6 3 -24 -7 -48z
m3355 -31 c-3 -50 -5 -64 -7 -38 -6 66 -10 71 -39 44 -41 -39 -169 -201 -166
-211 1 -5 -7 -4 -18 2 -22 12 -140 155 -140 170 0 27 251 107 345 109 l30 1
-5 -77z m310 -33 c14 -81 25 -95 83 -110 72 -19 74 -22 19 -36 -69 -16 -90
-36 -98 -93 -4 -25 -10 -55 -14 -66 -6 -16 -9 -12 -15 20 -3 22 -9 52 -11 67
-7 36 -43 64 -94 72 -53 8 -51 22 6 31 62 9 80 30 94 114 6 39 13 71 15 71 2
0 9 -32 15 -70z m-2155 15 l20 -16 -20 10 c-11 5 -29 17 -40 26 l-20 16 20
-10 c11 -5 29 -17 40 -26z m10 17 c-3 -3 -11 0 -18 7 -9 10 -8 11 6 5 10 -3
15 -9 12 -12z m-2725 -91 l29 -59 -59 31 -60 31 27 28 c15 15 28 28 30 28 1 0
16 -27 33 -59z m4150 -8 c32 -61 137 -173 201 -214 36 -23 48 -36 44 -48 -7
-19 -101 -170 -127 -203 -17 -23 -18 -23 -18 40 0 101 -37 162 -125 203 -135
63 -298 -45 -298 -197 0 -134 119 -239 247 -219 l41 7 -90 -92 c-79 -80 -287
-250 -307 -250 -4 0 11 30 32 66 42 73 65 151 56 189 -20 78 -209 -31 -349
-202 l-61 -74 -28 32 c-15 17 -28 33 -28 35 0 18 64 172 107 259 153 307 344
521 598 673 39 23 72 42 75 42 3 0 16 -21 30 -47z m-2646 -19 c20 -8 21 -24 2
-24 -8 0 -16 7 -20 15 -6 17 -4 18 18 9z m-1774 -18 c146 -26 295 -108 390
-214 69 -76 70 -81 53 -124 -18 -44 -26 -47 -40 -15 -20 43 -118 141 -189 187
-103 68 -201 95 -339 95 -94 0 -122 -4 -193 -29 -197 -67 -355 -237 -407 -436
-23 -86 -23 -236 -1 -319 37 -141 122 -269 238 -356 54 -40 63 -51 52 -60 -36
-26 79 -85 215 -109 42 -8 63 -15 46 -15 -90 -2 -264 66 -364 143 -195 150
-304 409 -272 644 23 175 81 292 206 417 164 165 376 232 605 191z m1840 4 c0
-5 -4 -10 -10 -10 -5 0 -10 5 -10 10 0 6 5 10 10 10 6 0 10 -4 10 -10z m-486
-63 c18 -63 36 -81 94 -96 23 -7 42 -14 42 -16 0 -2 -24 -11 -54 -19 -48 -14
-55 -20 -70 -56 -9 -22 -16 -49 -16 -60 0 -41 -18 -27 -29 24 -14 62 -31 81
-92 100 l-44 13 45 12 c61 17 77 34 91 97 7 30 13 54 15 54 1 0 10 -24 18 -53z
m476 6 c0 -7 5 -13 11 -13 6 0 8 7 5 16 -5 14 -4 15 9 4 8 -7 15 -18 14 -24
-3 -27 2 -57 9 -52 4 2 9 -4 9 -15 2 -21 -12 -26 -23 -8 -5 8 -13 4 -24 -11
-21 -28 -39 -20 -32 15 3 18 0 25 -12 25 -9 0 -16 5 -16 10 0 6 6 10 13 10 8
0 7 3 -3 9 -8 6 -18 7 -24 4 -5 -3 -6 -1 -2 5 4 7 9 22 11 34 6 30 26 40 42
20 7 -9 13 -23 13 -29z m50 32 c0 -8 -4 -15 -9 -15 -13 0 -22 16 -14 24 11 11
23 6 23 -9z m20 -65 c0 -5 -4 -10 -10 -10 -5 0 -10 5 -10 10 0 6 5 10 10 10 6
0 10 -4 10 -10z m171 -59 c6 9 9 -92 8 -264 0 -152 -3 -276 -7 -273 -4 2 -6
-46 -5 -107 1 -67 -1 -102 -6 -87 -12 39 -14 247 -1 255 5 3 9 32 8 63 l-1 57
-7 -60 c-4 -33 -7 57 -7 200 0 143 2 247 4 231 4 -22 7 -26 14 -15z m2711 -23
c-6 -6 -12 -6 -17 3 -5 8 -4 10 3 5 7 -4 12 0 13 11 0 12 2 13 6 5 3 -8 1 -18
-5 -24z m-2892 -18 c0 -11 5 -20 11 -20 8 0 8 -4 -1 -15 -6 -8 -9 -18 -6 -24
8 -12 -17 -21 -43 -14 -23 6 -40 45 -22 51 6 2 8 8 5 14 -4 6 1 8 15 3 15 -5
21 -2 21 9 0 9 5 16 10 16 6 0 10 -9 10 -20z m-1070 -46 c55 -71 275 -281 396
-377 120 -96 383 -277 511 -351 60 -34 83 -54 87 -73 4 -14 5 -28 2 -30 -9
-10 -379 225 -528 335 -158 116 -224 175 -396 350 -160 162 -163 166 -140 178
12 7 25 13 28 13 3 0 21 -20 40 -45z m-1031 12 c7 -8 42 -165 80 -349 67 -330
70 -367 37 -367 -32 0 -38 22 -127 454 -48 237 -50 251 -33 263 23 16 29 16
43 -1z m3575 -25 c8 -12 -158 -169 -290 -275 -143 -114 -384 -276 -619 -416
-104 -62 -201 -120 -214 -129 l-24 -16 6 35 c4 19 13 38 20 43 6 4 84 50 172
103 352 210 626 408 810 585 80 77 103 95 117 88 9 -5 19 -13 22 -18z m1015
-9 c48 -26 73 -75 68 -134 -5 -62 -29 -96 -84 -120 -98 -43 -193 23 -193 135
0 102 117 168 209 119z m365 5 c18 -13 17 -18 -20 -103 -133 -311 -358 -555
-695 -757 -103 -61 -119 -66 -139 -42 -8 10 -9 15 -2 15 18 0 157 85 250 152
100 72 257 221 336 317 78 95 167 244 206 345 18 47 36 86 40 86 3 0 14 -6 24
-13z m-3839 -258 c125 -121 254 -233 368 -318 80 -59 87 -66 71 -78 -10 -7
-23 -13 -30 -13 -14 0 -157 110 -293 223 -92 77 -257 240 -347 343 l-58 66 22
19 23 18 72 -82 c39 -45 117 -125 172 -178z m999 199 c18 -19 14 -56 -6 -62
-19 -4 -48 17 -48 35 0 12 22 38 33 39 5 0 14 -6 21 -12z m1572 -2 c18 -14 16
-18 -41 -76 -216 -222 -579 -485 -1054 -764 -117 -69 -215 -126 -216 -126 -1
0 2 17 8 38 9 33 19 43 66 68 96 50 400 236 546 333 223 149 506 379 629 510
34 36 35 36 62 17z m-3388 -45 c13 -8 97 -389 88 -398 -9 -9 -67 29 -76 50 -5
12 -23 91 -40 175 -24 119 -28 157 -19 168 13 16 28 18 47 5z m2145 -187 c-31
-127 -48 -182 -53 -169 -4 11 -5 27 -3 35 3 9 -2 8 -12 -5 l-17 -20 5 20 c3
11 16 64 28 117 13 53 25 95 28 93 3 -1 7 13 8 32 1 23 11 43 30 61 15 15 29
27 30 26 2 0 -18 -86 -44 -190z m-1718 134 c60 -132 78 -331 41 -468 -23 -83
-22 -83 -54 -63 -15 9 -28 17 -29 18 -1 0 5 28 14 60 33 121 17 294 -38 422
l-20 47 23 18 c13 10 27 18 31 18 4 0 19 -24 32 -52z m-1749 1 c41 -11 46 -16
95 -103 28 -50 96 -156 150 -237 67 -100 107 -170 128 -227 75 -207 237 -377
439 -462 36 -16 86 -46 111 -67 143 -123 420 -313 582 -401 l94 -51 -3 -45
c-2 -25 -7 -46 -11 -46 -4 0 -63 32 -132 71 -640 366 -1136 870 -1480 1502
-32 58 -43 87 -32 83 8 -4 35 -11 59 -17z m3144 -35 c0 -19 -19 -27 -35 -14
-11 9 -12 16 -2 30 8 14 15 16 24 8 7 -6 13 -16 13 -24z m-2203 -12 c10 -7 45
-149 68 -282 2 -14 21 -109 42 -213 35 -174 36 -188 21 -204 -27 -27 -45 -1
-68 100 -67 300 -118 572 -109 589 10 19 26 23 46 10z m1990 -88 c12 -49 23
-96 23 -104 0 -10 -28 -25 -85 -44 l-85 -29 -62 43 c-85 59 -176 128 -183 140
-3 5 14 14 37 21 65 18 312 68 323 65 5 -1 19 -43 32 -92z m3266 40 c-6 -16
-29 -19 -38 -4 -4 6 -1 17 5 26 15 18 42 0 33 -22z m-4704 -17 c11 -36 61
-283 61 -304 0 -10 -9 -9 -38 6 l-38 19 -28 148 c-27 139 -28 148 -12 160 25
18 43 8 55 -29z m3382 -69 c-32 -62 -69 -143 -82 -180 l-24 -68 -60 0 c-80 0
-184 -23 -246 -55 -29 -14 -53 -24 -56 -22 -2 2 15 42 38 88 33 66 60 102 128
169 91 91 167 137 271 164 96 26 96 28 31 -96z m-1741 86 c0 -8 -5 -12 -10 -9
-6 4 -8 11 -5 16 9 14 15 11 15 -7z m-1071 -174 c35 -32 56 -57 48 -57 -9 0
-18 6 -21 13 -3 8 -12 11 -21 8 -8 -3 -15 -2 -15 4 0 5 -10 12 -23 16 -12 3
-32 14 -43 24 -11 11 -30 25 -42 31 -13 7 -20 16 -17 21 3 5 1 11 -5 15 -5 3
-10 -2 -11 -12 -1 -16 -27 88 -28 112 0 6 25 -19 57 -54 32 -36 87 -90 121
-121z m-851 161 c21 -13 53 -160 40 -181 -8 -12 -2 -50 21 -146 17 -71 31
-135 31 -141 0 -17 -32 -25 -46 -11 -19 20 -104 449 -93 471 11 19 26 21 47 8z
m-510 -19 c14 -9 92 -383 92 -439 0 -28 -4 -33 -24 -33 -30 0 -29 -2 -70 189
-58 268 -57 254 -39 273 18 20 23 21 41 10z m926 -11 c4 -5 13 -44 22 -86 15
-71 15 -79 0 -93 -28 -28 -49 -3 -69 83 -10 43 -16 84 -13 91 6 16 52 19 60 5z
m-1867 -83 c29 -27 30 -71 1 -98 -65 -60 -161 37 -98 100 26 26 68 25 97 -2z
m1092 4 c15 -29 43 -188 39 -229 -2 -30 -8 -39 -25 -41 -24 -4 -24 -4 -53 125
-21 96 -25 145 -13 156 13 13 42 7 52 -11z m5991 -2 c41 -41 12 -120 -45 -120
-31 0 -75 41 -75 70 0 29 44 70 75 70 14 0 34 -9 45 -20z m-3857 -151 c10 -40
16 -73 14 -75 -2 -2 -41 21 -87 51 -54 34 -79 56 -70 59 8 2 35 11 60 19 25 9
50 16 56 16 5 1 18 -31 27 -70z m394 39 c-3 -8 -6 -5 -6 6 -1 11 2 17 5 13 3
-3 4 -12 1 -19z m31 -19 c-3 -8 -7 -3 -11 10 -4 17 -3 21 5 13 5 -5 8 -16 6
-23z m-2783 -10 c5 -23 3 -36 -10 -48 -15 -15 -17 -15 -31 3 -15 21 -19 58 -7
69 17 18 42 5 48 -24z m4590 -8 c-8 -17 -18 -31 -21 -31 -3 0 -2 6 1 13 11 20
-64 -64 -180 -201 -60 -72 -109 -135 -108 -139 2 -11 -15 -31 -51 -56 l-31
-22 29 50 c70 120 155 236 225 306 70 70 140 124 149 115 2 -2 -4 -18 -13 -35z
m796 19 c35 -19 20 -90 -20 -90 -19 0 -51 29 -51 47 0 13 34 53 46 53 3 0 14
-5 25 -10z m-3961 -35 c0 -22 29 -45 58 -45 l27 0 -29 -23 c-25 -20 -28 -28
-23 -55 7 -34 -3 -41 -23 -17 -14 17 -46 20 -55 5 -13 -22 -23 -8 -18 24 4 28
1 36 -16 45 -30 16 -26 31 8 31 22 0 31 6 41 30 12 29 30 32 30 5z m1309 -57
c-13 -24 -11 -31 6 -25 11 5 13 0 8 -26 -9 -49 -24 -80 -19 -40 3 25 1 30 -11
26 -13 -5 -15 0 -9 33 4 21 11 40 16 42 4 2 6 13 4 25 -4 21 -4 21 5 2 5 -11
5 -27 0 -37z m-1842 -62 c245 -136 306 -173 297 -178 -5 -3 -42 -15 -81 -27
-40 -12 -73 -24 -73 -27 0 -3 26 -42 57 -87 l57 -80 -34 -29 c-19 -15 -38 -28
-42 -28 -4 0 -35 36 -69 80 -34 44 -65 80 -69 80 -3 0 -21 -31 -40 -70 -18
-38 -36 -67 -39 -64 -6 5 -139 524 -135 524 1 0 78 -42 171 -94z m1870 62 c-3
-7 -5 -2 -5 12 0 14 2 19 5 13 2 -7 2 -19 0 -25z m941 12 c-7 -10 -14 -17 -17
-15 -2 3 -9 1 -16 -3 -6 -4 1 3 15 15 31 28 34 28 18 3z m-1621 -133 c43 -30
147 -96 231 -147 83 -51 152 -97 152 -102 0 -10 -16 -3 -42 19 -21 19 -35 -1
-16 -24 12 -15 11 -15 -10 -4 -12 7 -20 17 -16 23 4 7 3 8 -5 4 -6 -4 -28 3
-49 15 -34 21 -332 209 -341 215 -4 4 8 54 13 54 3 0 40 -24 83 -53z m2357
-22 c-20 -25 -39 -45 -42 -45 -5 0 8 17 52 68 35 40 28 23 -10 -23z m-236 -61
c-24 -41 -30 -42 -58 -7 l-21 26 28 29 27 28 22 -21 22 -21 -20 -34z m-1481
44 c-3 -8 -6 -5 -6 6 -1 11 2 17 5 13 3 -3 4 -12 1 -19z m-32 -19 c6 -17 9
-19 16 -8 12 19 11 7 -2 -49 -14 -56 -25 -72 -24 -35 0 30 -21 42 -29 16 -3
-10 -3 4 -1 30 3 27 7 53 11 58 9 15 22 10 29 -12z m-1031 -40 l73 -51 74 46
c41 24 76 43 78 40 2 -2 -7 -43 -19 -90 l-24 -87 62 -58 62 -58 -33 -5 c-17
-3 -59 -8 -91 -11 -33 -3 -61 -7 -62 -8 -1 -1 -20 -40 -41 -87 l-40 -85 -27
88 c-15 48 -32 87 -39 88 -7 0 -48 6 -91 12 l-79 12 72 59 c66 54 71 61 66 90
-11 64 -22 156 -18 156 3 0 37 -23 77 -51z m3250 -21 c-20 -205 -119 -373
-289 -493 -78 -54 -85 -58 -85 -45 0 6 11 15 24 19 32 13 152 148 199 224 43
71 76 167 84 247 4 43 11 60 32 77 14 12 29 22 33 23 4 0 5 -24 2 -52z m-987
26 c2 -7 -20 -26 -49 -43 -29 -17 -73 -48 -97 -68 -25 -21 -41 -31 -36 -23 23
41 62 85 103 116 47 34 72 39 79 18z m-2490 -64 l28 -1 -24 -19 c-17 -14 -22
-27 -19 -45 6 -29 1 -31 -23 -9 -16 14 -20 14 -44 -2 l-26 -17 7 27 c4 18 1
32 -10 45 -16 18 -15 19 9 25 14 4 31 18 37 32 l12 25 12 -31 c10 -23 19 -30
41 -30z m3731 2 c3 -17 -2 -22 -17 -22 -14 0 -21 6 -21 18 0 38 33 41 38 4z
m-1043 -75 c-16 -38 -19 -84 -9 -111 9 -23 47 -20 103 8 l48 25 27 -28 c25
-27 26 -30 16 -77 -14 -63 -49 -122 -99 -167 -34 -30 -101 -74 -101 -65 0 2 7
25 15 52 8 27 14 51 12 53 -2 1 -32 -22 -67 -52 -40 -35 -113 -80 -191 -120
-70 -36 -130 -65 -132 -65 -6 0 39 157 64 225 11 30 42 88 69 130 27 41 45 75
39 75 -5 0 -28 -9 -49 -20 -22 -11 -40 -17 -40 -13 0 5 13 31 29 58 37 65 109
131 174 160 l52 23 28 -27 c27 -26 27 -28 12 -64z m-470 -1 c0 -42 -29 -57
-56 -30 -29 29 -11 67 29 62 22 -2 27 -8 27 -32z m-1209 -35 c-3 -5 1 -11 8
-14 8 -3 16 -1 19 6 2 6 6 2 9 -10 6 -22 5 -22 -23 -7 -29 14 -39 34 -18 34 5
0 8 -4 5 -9z m224 -11 c0 -5 -5 -10 -11 -10 -5 0 -7 5 -4 10 3 6 8 10 11 10 2
0 4 -4 4 -10z m1070 1 c0 -4 -22 -55 -50 -112 -34 -71 -48 -93 -44 -69 14 83
61 190 84 190 5 0 10 -4 10 -9z m-1472 -92 c85 -21 194 -76 245 -122 25 -23
42 -53 58 -102 22 -65 24 -89 27 -345 l3 -274 -63 59 c-36 33 -81 73 -101 88
-62 47 -60 109 4 142 25 13 37 15 55 6 48 -21 23 11 -88 117 -62 59 -142 136
-178 172 -36 36 -100 97 -142 136 l-77 71 40 6 c22 3 43 8 46 11 3 2 -5 19
-17 36 l-23 32 69 -7 c38 -4 102 -16 142 -26z m1037 15 c18 -4 33 -49 103
-301 45 -163 81 -297 80 -299 -2 -1 -46 2 -98 8 -243 24 -510 -57 -661 -203
-34 -32 -62 -59 -63 -59 0 0 -1 115 0 255 1 235 3 261 24 337 29 98 60 135
167 191 103 54 196 76 323 76 58 1 114 -2 125 -5z m-2540 -23 c-20 -18 -112
-42 -175 -46 l-65 -4 60 9 c33 5 87 18 120 28 73 24 71 24 60 13z m450 -72 c8
-35 7 -38 -24 -41 -14 -2 -28 4 -35 15 -9 15 -7 21 14 37 33 26 37 25 45 -11z
m948 -209 c191 -182 223 -217 212 -229 -12 -12 -19 -9 -53 17 -21 17 -45 38
-52 47 -7 8 -17 12 -23 8 -5 -3 -7 -2 -4 4 5 9 -38 55 -130 137 l-31 28 2 -27
c3 -23 -14 -10 -115 91 -66 65 -119 122 -119 126 0 8 37 16 66 14 14 0 108
-84 247 -216z m2233 138 c-16 -54 -73 -154 -82 -145 -3 3 3 22 14 44 11 21 27
63 37 93 10 30 22 64 28 75 19 35 21 -8 3 -67z m-2813 65 c4 -3 0 -15 -10 -25
-18 -20 -4 -25 15 -6 9 9 12 9 12 0 0 -7 -17 -31 -37 -54 -21 -24 -39 -45 -41
-48 -1 -2 -11 1 -21 7 -17 10 -27 3 -82 -60 -106 -119 -359 -396 -370 -402 -5
-4 -9 1 -9 9 0 14 128 168 320 387 41 47 97 111 123 142 45 54 80 71 100 50z
m-594 -136 c7 -7 29 -17 49 -22 l37 -11 -45 -15 c-44 -14 -45 -16 -61 -74
l-16 -60 -7 40 c-10 56 -29 81 -73 96 l-37 12 45 16 c41 15 45 20 58 70 l14
53 12 -46 c7 -26 18 -53 24 -59z m2524 -58 c27 -85 71 -228 99 -319 28 -91 59
-191 69 -224 l18 -58 -52 6 c-28 4 -54 11 -57 16 -9 14 -120 38 -235 51 -120
13 -253 7 -355 -15 -36 -8 -66 -13 -68 -11 -2 2 34 16 80 31 150 48 362 44
595 -13 l22 -5 -20 64 c-10 34 -19 71 -19 81 0 10 -34 136 -75 279 -41 143
-75 265 -75 270 0 5 6 8 13 6 6 -3 34 -74 60 -159z m-1722 -11 c-18 -62 -51
-173 -73 -246 -22 -73 -38 -135 -35 -138 3 -3 -5 -37 -18 -75 -13 -38 -20 -69
-16 -69 4 0 49 10 101 22 77 18 126 22 255 22 99 0 177 -4 205 -12 65 -18 161
-54 157 -58 -2 -2 -44 5 -93 16 -190 43 -445 32 -589 -26 -35 -14 -74 -24 -87
-22 -24 3 -24 4 78 328 124 396 124 394 137 381 7 -7 0 -45 -22 -123z m297
-145 c108 -108 188 -192 177 -188 -102 40 -290 61 -405 46 -41 -5 -76 -9 -77
-7 -2 2 28 109 78 279 11 37 22 67 25 67 3 0 94 -88 202 -197z m2150 50 c-4
-20 -91 -77 -109 -71 -13 4 85 88 103 88 5 0 8 -8 6 -17z m-2013 -46 c4 5 5 3
2 -3 -7 -13 16 -37 26 -29 4 3 5 2 2 -2 -3 -4 16 -29 42 -57 38 -40 33 -37
-23 14 -38 36 -76 74 -83 85 -13 19 -13 19 6 2 11 -9 23 -14 28 -10z m1823
-84 c3 -22 -11 -37 -45 -47 -20 -6 -23 -4 -23 18 0 25 35 59 55 53 5 -2 11
-13 13 -24z m-3888 -38 c0 -15 -7 -26 -20 -30 -41 -13 -70 43 -33 64 25 13 53
-5 53 -34z m4994 39 c24 -9 21 -61 -4 -69 -39 -12 -66 35 -38 63 14 14 20 14
42 6z m-2972 -155 c82 -23 218 -86 263 -124 30 -25 29 -25 -35 4 -132 58 -196
73 -342 78 -119 5 -260 -5 -320 -23 -16 -5 -16 -2 -1 35 15 38 18 40 67 45 28
3 65 8 81 10 59 8 216 -6 287 -25z m1286 14 c30 -5 62 -42 62 -71 0 -5 -30 -3
-67 4 -224 41 -416 20 -613 -67 -85 -38 -46 -6 60 50 165 86 371 117 558 84z
m-2134 -124 c72 -28 134 -54 139 -58 5 -6 -7 -64 -18 -78 -2 -3 -213 78 -279
106 l-49 22 34 29 c19 16 36 29 38 30 3 0 64 -23 135 -51z m1555 -82 c-7 -7
-22 -14 -33 -14 -19 -2 -18 0 4 12 32 18 44 19 29 2z m-2144 -22 c14 -13 25
-36 25 -50 0 -14 -11 -37 -25 -50 -38 -39 -86 -32 -111 16 -39 77 51 145 111
84z m3874 -1 c41 -52 13 -114 -51 -114 -44 0 -68 25 -68 71 0 67 78 95 119 43z
m-2384 -115 c33 -5 81 -9 108 -9 36 0 51 -5 65 -21 9 -12 37 -34 61 -50 l45
-29 -30 0 c-55 0 -347 30 -449 46 -78 12 -255 49 -322 66 -4 1 62 5 147 8 168
7 281 3 375 -11z m1235 -15 c-177 -43 -548 -94 -689 -94 l-36 0 30 16 c17 8
45 30 63 47 30 30 41 33 135 43 56 6 212 11 347 11 l245 1 -95 -24z m-830
-253 c0 -6 -4 -13 -10 -16 -5 -3 -10 1 -10 9 0 9 5 16 10 16 6 0 10 -4 10 -9z
m-518 -88 c25 -23 23 -59 -6 -78 -39 -26 -76 -3 -76 47 0 44 48 62 82 31z
m1093 -7 c30 -46 -17 -102 -64 -77 -28 16 -35 48 -17 76 21 32 60 33 81 1z"/>
<path d="M770 5361 c0 -17 2 -31 4 -31 8 0 13 51 5 56 -5 3 -9 -9 -9 -25z"/>
<path d="M745 5349 c-4 -6 -5 -12 -2 -15 2 -3 7 2 10 11 7 17 1 20 -8 4z"/>
<path d="M7064 7883 c4 -9 30 -54 59 -100 45 -72 56 -83 80 -83 26 0 68 -31
78 -57 5 -13 320 -52 316 -39 -2 5 -39 29 -83 54 -168 93 -445 242 -450 242
-3 0 -3 -8 0 -17z"/>
<path d="M3110 7590 c0 -6 -11 -16 -25 -22 -25 -11 -25 -12 -25 -147 0 -75 4
-142 9 -149 16 -26 61 8 87 64 13 29 34 61 47 71 13 10 32 32 43 48 10 17 32
43 48 58 15 16 24 32 20 36 -9 8 -173 51 -194 51 -5 0 -10 -5 -10 -10z m74
-149 c9 -14 -4 -41 -19 -41 -18 0 -26 15 -19 34 7 17 29 21 38 7z"/>
<path d="M6025 8303 c-70 -36 -124 -114 -125 -177 0 -77 51 -161 121 -196 45
-24 134 -27 182 -6 69 29 127 116 127 191 0 78 -56 158 -132 189 -48 20 -134
20 -173 -1z m155 -65 c39 -20 97 -84 86 -95 -2 -2 -29 3 -60 12 -32 9 -96 20
-144 23 l-87 7 29 28 c52 49 111 57 176 25z"/>
<path d="M5583 8060 c-51 -12 -96 -43 -127 -88 -42 -59 -48 -150 -16 -217 71
-148 294 -144 370 6 22 43 27 130 9 176 -18 48 -79 102 -133 118 -54 16 -56
16 -103 5z m33 -105 c-32 -41 -66 -117 -82 -180 -3 -14 -10 -25 -16 -25 -13 0
-38 64 -38 97 0 71 75 152 142 153 l28 0 -34 -45z"/>
<path d="M6415 7911 c-151 -70 -169 -275 -33 -367 145 -98 329 -1 328 173 -1
153 -159 257 -295 194z m190 -92 c51 -62 51 -156 -1 -210 -15 -16 -30 -29 -33
-29 -3 0 -7 37 -7 83 -2 72 -13 127 -39 189 -6 16 -4 17 24 7 17 -6 42 -24 56
-40z"/>
<path d="M6034 7825 c-4 -10 -1 -21 7 -26 22 -14 46 -10 53 7 8 20 8 21 -26
29 -21 5 -29 3 -34 -10z"/>
<path d="M5905 7760 c3 -5 8 -10 11 -10 2 0 4 5 4 10 0 6 -5 10 -11 10 -5 0
-7 -4 -4 -10z"/>
<path d="M5975 7714 c-79 -85 44 -205 132 -130 22 19 28 32 28 66 0 34 -6 47
-28 66 -40 34 -100 33 -132 -2z"/>
<path d="M6200 7706 c0 -9 5 -16 10 -16 6 0 10 4 10 9 0 6 -4 13 -10 16 -5 3
-10 -1 -10 -9z"/>
<path d="M5856 7634 c-6 -16 13 -74 24 -74 18 0 27 26 19 56 -9 31 -34 42 -43
18z"/>
<path d="M6158 7558 c-7 -13 -13 -31 -14 -40 -1 -14 3 -15 17 -8 19 11 49 49
49 62 0 18 -40 6 -52 -14z"/>
<path d="M5980 7495 c-10 -12 -7 -17 15 -25 37 -14 55 -13 62 5 7 20 5 21 -34
28 -21 4 -35 1 -43 -8z"/>
<path d="M3211 6610 c2 -44 -1 -50 -23 -51 -13 0 -17 -3 -10 -6 10 -4 9 -9 -5
-20 -17 -13 -16 -14 10 -10 15 2 27 0 27 -4 0 -5 7 -9 16 -9 14 0 15 8 9 48
-8 54 -26 94 -24 52z"/>
<path d="M3466 5974 c-9 -20 -15 -38 -13 -41 3 -2 12 13 22 32 9 20 15 38 13
41 -3 2 -12 -13 -22 -32z"/>
<path d="M2001 6319 c12 -67 46 -157 76 -204 l27 -43 58 29 c32 16 58 32 58
35 0 29 -26 84 -39 84 -13 0 -13 2 -2 9 8 5 11 16 6 30 -3 12 -11 19 -16 16
-5 -4 -9 -1 -9 4 0 6 5 11 12 11 6 0 2 9 -10 21 -12 11 -27 17 -34 13 -8 -5
-9 -2 -5 9 5 13 1 17 -17 17 -13 0 -44 3 -69 6 l-45 6 9 -43z m149 -19 c0 -5
-4 -10 -10 -10 -5 0 -10 5 -10 10 0 6 5 10 10 10 6 0 10 -4 10 -10z"/>
<path d="M2360 6199 c0 -5 9 -9 20 -9 11 0 20 2 20 4 0 2 -9 6 -20 9 -11 3
-20 1 -20 -4z"/>
<path d="M3120 6349 c0 -5 5 -7 10 -4 6 3 10 8 10 11 0 2 -4 4 -10 4 -5 0 -10
-5 -10 -11z"/>
<path d="M8565 5600 c-3 -5 -2 -10 4 -10 5 0 13 5 16 10 3 6 2 10 -4 10 -5 0
-13 -4 -16 -10z"/>
<path d="M8307 5537 c3 -15 9 -27 14 -27 13 0 11 13 -5 35 -13 18 -14 18 -9
-8z"/>
<path d="M8355 5530 c3 -5 8 -10 11 -10 2 0 4 5 4 10 0 6 -5 10 -11 10 -5 0
-7 -4 -4 -10z"/>
<path d="M1932 5671 c-83 -77 -95 -100 -69 -134 16 -21 312 -86 328 -70 12 12
-131 257 -159 272 -13 7 -35 -8 -100 -68z"/>
<path d="M2303 5544 c-18 -46 -19 -55 -6 -65 11 -10 26 -9 69 6 30 10 54 20
54 22 0 24 -48 75 -62 67 -5 -3 -8 -1 -8 4 0 6 -6 12 -13 15 -8 3 -20 -15 -34
-49z"/>
<path d="M2375 5451 c-69 -25 -69 -44 0 -63 49 -14 58 -14 70 -1 8 8 15 21 15
29 0 8 5 14 12 14 6 0 3 9 -7 20 -21 24 -25 24 -90 1z"/>
<path d="M3736 4781 c-3 -5 1 -11 9 -14 9 -4 12 -1 8 9 -6 16 -10 17 -17 5z"/>
<path d="M6788 5263 c7 -3 16 -2 19 1 4 3 -2 6 -13 5 -11 0 -14 -3 -6 -6z"/>
<path d="M6925 5263 c11 -3 25 -12 31 -21 7 -10 19 -13 37 -8 19 4 29 1 36
-11 6 -10 11 -12 11 -5 0 6 8 12 18 13 9 0 -14 9 -53 20 -38 10 -77 18 -85 18
-9 -1 -7 -3 5 -6z"/>
<path d="M6906 5196 c5 -13 24 -16 108 -14 l101 2 -95 5 c-52 3 -101 10 -107
14 -9 6 -11 3 -7 -7z"/>
<path d="M6596 5308 c3 -4 12 -8 20 -8 8 0 14 4 14 8 0 4 -9 8 -19 8 -11 0
-17 -4 -15 -8z"/>
<path d="M6515 4970 c-3 -5 -1 -10 4 -10 6 0 11 5 11 10 0 6 -2 10 -4 10 -3 0
-8 -4 -11 -10z"/>
<path d="M5590 3846 c0 -2 8 -10 18 -17 15 -13 16 -12 3 4 -13 16 -21 21 -21
13z"/>
<path d="M5630 3817 c0 -2 15 -16 33 -33 l32 -29 -29 33 c-28 30 -36 37 -36
29z"/>
<path d="M5640 3765 c13 -14 26 -25 28 -25 3 0 -5 11 -18 25 -13 14 -26 25
-28 25 -3 0 5 -11 18 -25z"/>
<path d="M5736 3648 c4 -25 2 -38 -5 -38 -6 0 -11 -8 -10 -17 0 -13 2 -14 6
-4 5 11 7 11 14 0 12 -19 10 50 -1 76 -7 14 -8 9 -4 -17z"/>
<path d="M5673 3468 c-53 -72 -55 -75 -35 -75 38 -1 108 95 85 118 -7 7 -23
-8 -50 -43z"/>
<path d="M7111 4831 c-13 -10 -20 -21 -15 -24 11 -6 38 13 42 31 3 15 2 15
-27 -7z"/>
<path d="M7125 4790 c-4 -6 -15 -8 -24 -5 -26 8 -47 -3 -48 -25 -2 -17 3 -19
25 -15 15 2 28 9 30 15 2 5 10 10 18 10 8 0 14 7 14 15 0 17 -6 19 -15 5z
m-31 -18 c3 -5 -1 -9 -9 -9 -8 0 -15 4 -15 9 0 4 4 8 9 8 6 0 12 -4 15 -8z"/>
<path d="M7060 4585 c-11 -13 -10 -14 4 -9 9 3 16 10 16 15 0 13 -6 11 -20 -6z"/>
<path d="M7035 4420 c3 -5 8 -10 11 -10 2 0 4 5 4 10 0 6 -5 10 -11 10 -5 0
-7 -4 -4 -10z"/>
<path d="M6983 4389 c9 -6 15 -14 12 -20 -4 -5 3 -9 14 -9 12 0 21 5 21 11 0
5 -5 7 -10 4 -6 -3 -13 1 -16 9 -3 9 -14 16 -23 16 -14 -1 -14 -2 2 -11z"/>
<path d="M7000 4319 c0 -5 5 -7 10 -4 6 3 10 8 10 11 0 2 -4 4 -10 4 -5 0 -10
-5 -10 -11z"/>
<path d="M6977 4263 c-4 -3 -7 -11 -7 -17 0 -6 5 -5 12 2 6 6 9 14 7 17 -3 3
-9 2 -12 -2z"/>
<path d="M6910 4210 c0 -5 5 -10 10 -10 6 0 10 5 10 10 0 6 -4 10 -10 10 -5 0
-10 -4 -10 -10z"/>
<path d="M6529 4363 c-13 -16 -12 -17 4 -4 16 13 21 21 13 21 -2 0 -10 -8 -17
-17z"/>
<path d="M6576 4353 c-6 -14 -5 -15 5 -6 7 7 10 15 7 18 -3 3 -9 -2 -12 -12z"/>
<path d="M4900 3830 c-8 -5 -11 -12 -7 -16 4 -4 13 -2 19 4 15 15 7 24 -12 12z"/>
<path d="M7438 3430 c-19 -9 -39 -15 -46 -12 -7 2 -12 -2 -12 -8 0 -19 79 -5
102 18 25 24 4 25 -44 2z"/>
<path d="M4593 2865 c0 -8 6 -16 14 -19 7 -3 13 -2 13 3 0 5 -6 14 -13 20 -10
8 -14 7 -14 -4z"/>
<path d="M4870 2700 c0 -5 5 -10 11 -10 5 0 7 5 4 10 -3 6 -8 10 -11 10 -2 0
-4 -4 -4 -10z"/>
<path d="M5365 2391 c-63 -36 -132 -97 -123 -106 4 -4 24 5 45 21 21 16 70 46
108 67 39 21 59 35 46 31 -16 -4 -21 -3 -17 5 11 18 -6 13 -59 -18z"/>
<path d="M5440 2307 c-88 -36 -214 -126 -199 -142 3 -2 36 17 74 42 39 26 105
61 148 79 52 21 73 34 62 38 -23 8 -23 8 -85 -17z"/>
<path d="M5515 2216 c-93 -30 -184 -79 -236 -127 -56 -51 -43 -61 18 -14 102
78 239 128 381 141 122 11 129 23 12 23 -82 0 -120 -5 -175 -23z"/>
<path d="M5567 2114 c-58 -14 -207 -78 -207 -89 0 -3 9 -1 19 5 13 6 21 6 23
0 2 -6 34 3 73 19 93 39 173 53 273 49 57 -2 82 1 82 8 0 7 -7 15 -16 18 -28
11 -188 5 -247 -10z"/>
<path d="M5302 1991 c-44 -32 -59 -50 -40 -47 23 4 80 37 74 43 -3 4 -1 12 5
20 18 21 6 16 -39 -16z m28 -5 c0 -2 -7 -7 -16 -10 -8 -3 -12 -2 -9 4 6 10 25
14 25 6z"/>
<path d="M4461 2351 c-9 -6 -8 -11 4 -21 9 -8 19 -9 25 -4 11 12 -14 34 -29
25z"/>
</g>
</svg>
